<svg width="137" height="71" viewBox="0 0 137 71" fill="none" xmlns="http://www.w3.org/2000/svg">
<g clip-path="url(#clip0_183_2125)">
<path d="M14.1938 21.8948C6.52976 24.5498 7.00871 39.4258 9.78672 50.8258C11.3197 57.478 15.0693 63.4111 20.4197 67.6508C20.4197 67.6508 21.6147 66.8087 26.4557 66.3877C31.2967 65.9667 29.4137 63.8618 32.7807 64.0728C36.1477 64.2838 41.4097 69.1248 47.0927 67.6508C52.7757 66.1768 60.9838 54.6018 61.4048 52.0758C61.8258 49.5498 58.2477 50.3927 55.3047 47.8667C52.3617 45.3407 48.9907 40.2897 49.6217 34.3967C50.2527 28.5037 56.3567 21.5578 58.6717 21.3478C60.9867 21.1378 50.0427 17.3478 52.9887 17.7698C55.9347 18.1918 49.6208 16.7178 49.6208 16.7178C49.6208 16.7178 43.3068 17.1388 38.8868 20.2958C34.4668 23.4528 37.2868 22.0867 31.5348 23.2357C25.7828 24.3847 21.8588 19.2398 14.1938 21.8948Z" fill="#10AF13"/>
<path d="M91.6079 26.2749C91.6079 26.2749 92.3079 11.9519 106.87 11.9519C121.432 11.9519 122.601 26.2749 122.601 26.2749H91.6079Z" fill="#10AF13"/>
<path d="M90.6689 56.3298V34.9629H122.602V56.3298H117.669V64.5479C117.669 64.5479 114.059 70.6039 112.004 68.5479C109.949 66.4919 109.45 56.3279 109.45 56.3279H100.058V64.5459L95.127 70.4158L91.606 64.5459L90.6689 56.3298Z" fill="#10AF13"/>
<path d="M122.528 5.4879C122.899 4.73203 122.955 3.85962 122.683 3.06259C122.548 2.66794 122.337 2.30368 122.062 1.9906C121.786 1.67751 121.452 1.42175 121.078 1.2379C120.704 1.05404 120.297 0.945712 119.881 0.919082C119.464 0.892452 119.047 0.948046 118.652 1.08269C117.855 1.35462 117.199 1.93203 116.828 2.6879L113.628 9.21189C110.834 7.72771 107.718 6.9516 104.554 6.9516C101.39 6.9516 98.2749 7.72771 95.4808 9.21189L92.2808 2.6879C92.0969 2.31363 91.8412 1.97924 91.5281 1.70382C91.215 1.42839 90.8507 1.21734 90.4561 1.08269C89.6591 0.810764 88.7867 0.866592 88.0308 1.2379C87.2749 1.6092 86.6975 2.26556 86.4256 3.06259C86.1537 3.85962 86.2095 4.73203 86.5808 5.4879L90.3498 13.1679C87.021 16.7436 85.172 21.4486 85.1758 26.3339C85.1758 26.6026 85.2825 26.8602 85.4725 27.0502C85.6625 27.2402 85.9201 27.3469 86.1888 27.3469H122.919C123.187 27.3469 123.445 27.2402 123.635 27.0502C123.825 26.8602 123.932 26.6026 123.932 26.3339C123.936 21.4486 122.087 16.7436 118.758 13.1679L122.528 5.4879ZM118.649 3.5879C118.713 3.44845 118.804 3.32322 118.917 3.2196C119.03 3.11597 119.163 3.03606 119.307 2.98458C119.452 2.93309 119.605 2.91108 119.758 2.91984C119.911 2.92861 120.061 2.96796 120.199 3.03559C120.336 3.10322 120.459 3.19775 120.56 3.31359C120.66 3.42944 120.736 3.56425 120.784 3.71007C120.831 3.85589 120.849 4.00976 120.836 4.16259C120.824 4.31542 120.78 4.46412 120.709 4.5999L117.229 11.6909C116.639 11.1793 116.018 10.7038 115.371 10.2669L118.649 3.5879ZM88.9258 3.0599C89.1991 2.92615 89.5144 2.90632 89.8024 3.00475C90.0903 3.10317 90.3275 3.31182 90.4618 3.5849L93.7388 10.2629C93.0912 10.6999 92.4704 11.1754 91.8798 11.6869L88.3998 4.5949C88.266 4.32154 88.2462 4.00629 88.3446 3.71832C88.4431 3.43036 88.6517 3.1932 88.9248 3.0589L88.9258 3.0599ZM87.2318 25.3169C87.4877 20.8959 89.4243 16.74 92.6449 13.7004C95.8655 10.6609 100.126 8.96768 104.555 8.96768C108.983 8.96768 113.244 10.6609 116.465 13.7004C119.685 16.74 121.622 20.8959 121.878 25.3169H87.2318Z" fill="#242E3B" stroke="#242E3B" stroke-width="1.5"/>
<path d="M131.022 29.6418C129.751 29.6434 128.533 30.149 127.634 31.0477C126.735 31.9464 126.23 33.1649 126.228 34.4358V50.6358C126.219 51.2712 126.336 51.902 126.573 52.4916C126.81 53.0812 127.161 53.6179 127.607 54.0704C128.053 54.5229 128.585 54.8822 129.171 55.1275C129.757 55.3728 130.386 55.4991 131.022 55.4991C131.657 55.4991 132.286 55.3728 132.872 55.1275C133.458 54.8822 133.99 54.5229 134.436 54.0704C134.882 53.6179 135.233 53.0812 135.47 52.4916C135.707 51.902 135.824 51.2712 135.815 50.6358V34.4358C135.813 33.165 135.308 31.9468 134.41 31.0481C133.511 30.1494 132.293 29.6437 131.022 29.6418ZM133.791 50.6418C133.791 51.3761 133.499 52.0803 132.98 52.5995C132.461 53.1187 131.757 53.4103 131.023 53.4103C130.288 53.4103 129.584 53.1187 129.065 52.5995C128.546 52.0803 128.254 51.3761 128.254 50.6418V34.4418C128.254 33.7076 128.546 33.0034 129.065 32.4842C129.584 31.965 130.288 31.6733 131.023 31.6733C131.757 31.6733 132.461 31.965 132.98 32.4842C133.499 33.0034 133.791 33.7076 133.791 34.4418V50.6418Z" fill="#242E3B" stroke="#242E3B" stroke-width="1.5"/>
<path d="M122.92 29.6419H117.654C117.518 29.6376 117.383 29.6606 117.256 29.7096C117.13 29.7586 117.014 29.8325 116.917 29.9269C116.819 30.0213 116.742 30.1344 116.689 30.2594C116.636 30.3843 116.609 30.5186 116.609 30.6544C116.609 30.7901 116.636 30.9244 116.689 31.0493C116.742 31.1743 116.819 31.2874 116.917 31.3818C117.014 31.4763 117.13 31.5502 117.256 31.5991C117.383 31.6481 117.518 31.6711 117.654 31.6669H121.908V55.5668H117.519C117.386 55.5667 117.254 55.5928 117.131 55.6437C117.008 55.6945 116.896 55.7692 116.802 55.8633C116.708 55.9574 116.633 56.0691 116.583 56.192C116.532 56.315 116.506 56.4468 116.506 56.5798V64.6799C116.506 65.4141 116.214 66.1183 115.695 66.6375C115.176 67.1567 114.471 67.4483 113.737 67.4483C113.003 67.4483 112.299 67.1567 111.78 66.6375C111.26 66.1183 110.969 65.4141 110.969 64.6799V56.5798C110.969 56.4468 110.943 56.315 110.892 56.192C110.841 56.0691 110.766 55.9574 110.672 55.8633C110.578 55.7692 110.467 55.6945 110.344 55.6437C110.221 55.5928 110.089 55.5667 109.956 55.5668H99.1557C99.0227 55.5667 98.8909 55.5928 98.7679 55.6437C98.645 55.6945 98.5332 55.7692 98.4391 55.8633C98.3451 55.9574 98.2704 56.0691 98.2196 56.192C98.1687 56.315 98.1426 56.4468 98.1427 56.5798V64.6799C98.1427 65.4141 97.8511 66.1183 97.3319 66.6375C96.8127 67.1567 96.1085 67.4483 95.3742 67.4483C94.64 67.4483 93.9358 67.1567 93.4166 66.6375C92.8974 66.1183 92.6057 65.4141 92.6057 64.6799V56.5798C92.6059 56.4468 92.5798 56.315 92.5289 56.192C92.478 56.0691 92.4034 55.9574 92.3093 55.8633C92.2152 55.7692 92.1035 55.6945 91.9806 55.6437C91.8576 55.5928 91.7258 55.5667 91.5927 55.5668H87.2027V31.6669H112.725C112.86 31.6711 112.995 31.6481 113.122 31.5991C113.249 31.5502 113.364 31.4763 113.462 31.3818C113.559 31.2874 113.636 31.1743 113.689 31.0493C113.742 30.9244 113.77 30.7901 113.77 30.6544C113.77 30.5186 113.742 30.3843 113.689 30.2594C113.636 30.1344 113.559 30.0213 113.462 29.9269C113.364 29.8325 113.249 29.7586 113.122 29.7096C112.995 29.6606 112.86 29.6376 112.725 29.6419H86.1907C86.0577 29.6417 85.9259 29.6678 85.8029 29.7187C85.68 29.7695 85.5682 29.8442 85.4741 29.9383C85.3801 30.0324 85.3054 30.1441 85.2546 30.267C85.2037 30.39 85.1776 30.5218 85.1777 30.6549V56.5818C85.1776 56.7149 85.2037 56.8467 85.2546 56.9697C85.3054 57.0926 85.3801 57.2044 85.4741 57.2984C85.5682 57.3925 85.68 57.4671 85.8029 57.518C85.9259 57.5689 86.0577 57.595 86.1907 57.5948H90.5797V64.6849C90.5797 65.9563 91.0848 67.1757 91.9839 68.0747C92.8829 68.9738 94.1023 69.4788 95.3737 69.4788C96.6452 69.4788 97.8646 68.9738 98.7636 68.0747C99.6627 67.1757 100.168 65.9563 100.168 64.6849V57.5948H108.945V64.6849C108.945 65.9563 109.45 67.1757 110.349 68.0747C111.248 68.9738 112.467 69.4788 113.739 69.4788C115.01 69.4788 116.23 68.9738 117.129 68.0747C118.028 67.1757 118.533 65.9563 118.533 64.6849V57.5948H122.922C123.055 57.595 123.187 57.5689 123.31 57.518C123.433 57.4671 123.544 57.3925 123.638 57.2984C123.732 57.2044 123.807 57.0926 123.858 56.9697C123.909 56.8467 123.935 56.7149 123.935 56.5818V30.6549C123.935 30.3862 123.828 30.1285 123.638 29.9385C123.448 29.7486 123.19 29.6419 122.922 29.6419H122.92Z" fill="#242E3B" stroke="#242E3B" stroke-width="1.5"/>
<path d="M78.0879 29.6418C76.817 29.6434 75.5985 30.149 74.6998 31.0477C73.8011 31.9464 73.2955 33.1649 73.2939 34.4358V50.6358C73.2939 51.9073 73.799 53.1267 74.6981 54.0257C75.5971 54.9248 76.8165 55.4298 78.0879 55.4298C79.3594 55.4298 80.5788 54.9248 81.4778 54.0257C82.3769 53.1267 82.8819 51.9073 82.8819 50.6358V34.4358C82.8804 33.1649 82.3748 31.9464 81.4761 31.0477C80.5774 30.149 79.3589 29.6434 78.0879 29.6418ZM80.8559 50.6418C80.8559 51.0054 80.7843 51.3654 80.6452 51.7013C80.5061 52.0372 80.3021 52.3424 80.0451 52.5995C79.788 52.8565 79.4828 53.0605 79.1469 53.1996C78.811 53.3387 78.451 53.4103 78.0874 53.4103C77.7239 53.4103 77.3639 53.3387 77.028 53.1996C76.6921 53.0605 76.3869 52.8565 76.1298 52.5995C75.8727 52.3424 75.6688 52.0372 75.5297 51.7013C75.3906 51.3654 75.3189 51.0054 75.3189 50.6418V34.4418C75.3189 34.0783 75.3906 33.7183 75.5297 33.3824C75.6688 33.0465 75.8727 32.7413 76.1298 32.4842C76.3869 32.2271 76.6921 32.0232 77.028 31.8841C77.3639 31.7449 77.7239 31.6733 78.0874 31.6733C78.451 31.6733 78.811 31.7449 79.1469 31.8841C79.4828 32.0232 79.788 32.2271 80.0451 32.4842C80.3021 32.7413 80.5061 33.0465 80.6452 33.3824C80.7843 33.7183 80.8559 34.0783 80.8559 34.4418V50.6418Z" fill="#242E3B" stroke="#242E3B" stroke-width="1.5"/>
<path d="M62.1579 48.4249C59.4014 47.7721 56.9221 46.2637 55.0752 44.1157C53.2283 41.9677 52.1085 39.2903 51.8763 36.467C51.6441 33.6437 52.3113 30.8194 53.7824 28.3985C55.2535 25.9776 57.4531 24.0843 60.0659 22.9899C60.3564 22.868 60.6142 22.6796 60.8187 22.4399C61.0231 22.2002 61.1684 21.9159 61.243 21.6098C61.3176 21.3038 61.3194 20.9845 61.2482 20.6776C61.1769 20.3707 61.0347 20.0848 60.8329 19.8429C59.4747 18.2126 57.7605 16.9155 55.8223 16.0516C53.884 15.1878 51.7735 14.7801 49.6529 14.8599C40.1189 14.8599 38.9429 20.0919 32.9779 20.0919C27.0129 20.0919 25.8329 14.8599 16.3029 14.8599C4.69394 14.8599 0.293945 25.1219 0.293945 36.9059C0.293945 45.6139 2.48694 53.8289 6.46894 60.0379C9.54994 64.8379 14.4689 69.4159 20.1219 69.4159C23.7046 69.4839 27.2502 68.6809 30.4539 67.0759C32.9099 65.9449 33.0439 65.9449 35.5019 67.0759C38.7057 68.6808 42.2513 69.4838 45.8339 69.4159C53.4749 69.4159 60.4749 61.1709 63.6189 50.9769C63.7003 50.7134 63.7266 50.4361 63.6963 50.162C63.666 49.8879 63.5796 49.623 63.4426 49.3837C63.3056 49.1443 63.1209 48.9358 62.8999 48.7708C62.6789 48.6059 62.4263 48.4882 62.1579 48.4249ZM45.8339 65.3949C42.8296 65.4559 39.8563 64.7784 37.1749 63.4219C33.6459 61.7979 32.3529 61.7769 28.7749 63.4219C26.0936 64.7784 23.1203 65.4559 20.1159 65.3949C16.7039 65.3949 12.8609 62.5799 9.83694 57.8639C6.26594 52.2959 4.29995 44.8529 4.29995 36.9069C4.29995 27.7199 7.04395 18.8819 16.2999 18.8819C24.6929 18.8819 25.3119 24.1139 32.9749 24.1139C40.6379 24.1139 41.2639 18.8819 49.6499 18.8819C51.857 18.8053 54.0316 19.4294 55.8619 20.6649C53.133 22.411 50.9439 24.8822 49.5399 27.8019C48.1359 30.7216 47.5724 33.9745 47.9124 37.1963C48.2525 40.4182 49.4827 43.4818 51.4653 46.044C53.4479 48.6063 56.1046 50.5661 59.1379 51.7039C55.8319 60.6999 50.0849 65.3949 45.8339 65.3949Z" fill="#242E3B"/>
<path d="M45.8658 2.71689C45.8121 2.2711 45.6106 1.85617 45.2934 1.5384C44.9761 1.22063 44.5615 1.01835 44.1158 0.963886C42.3614 0.813497 40.595 1.03749 38.9337 1.62105C37.2723 2.2046 35.7539 3.1344 34.4789 4.34889C33.2664 5.62988 32.3387 7.15297 31.7569 8.81806C31.175 10.4831 30.9521 12.2525 31.1029 14.0099C31.1562 14.4562 31.3577 14.8717 31.6752 15.1899C31.9926 15.5081 32.4077 15.7105 32.8539 15.7649C34.609 15.9253 36.3781 15.706 38.041 15.1219C39.7039 14.5378 41.2215 13.6026 42.4908 12.3799C43.7034 11.0986 44.6311 9.57511 45.2127 7.90967C45.7944 6.24422 46.017 4.47451 45.8658 2.71689ZM39.6538 9.53689C38.4288 10.7209 36.8538 11.4772 35.1639 11.6929C35.3785 10.0007 36.1328 8.42266 37.3149 7.19289C38.5399 6.00887 40.1149 5.2526 41.8048 5.03689C41.5904 6.72915 40.8361 8.3072 39.6538 9.53689Z" fill="#242E3B"/>
</g>
<defs>
<clipPath id="clip0_183_2125">
<rect width="136.272" height="70.418" fill="white" transform="translate(0.293945)"/>
</clipPath>
</defs>
</svg>
