<svg width="93" height="84" viewBox="0 0 93 84" fill="none" xmlns="http://www.w3.org/2000/svg">
<g clip-path="url(#clip0_183_2178)">
<path d="M50.6522 16.4097C50.6522 16.4097 62.475 43.5874 74.9125 53.5678L27.4661 60.3242L23.167 52.34L50.6522 16.4097Z" fill="#10AF13"/>
<path d="M74.8394 20.9009L84.8125 15.1429" stroke="#10AF13" stroke-width="4" stroke-linecap="round"/>
<path d="M70.8047 15.3311L76.5627 5.35791" stroke="#10AF13" stroke-width="4" stroke-linecap="round"/>
<path d="M79.4429 27.335L90.9571 27.134" stroke="#10AF13" stroke-width="4" stroke-linecap="round"/>
<path d="M78.9191 19.7129L75.3433 21.7774C75.0054 21.9725 74.7589 22.2938 74.6579 22.6706C74.5569 23.0475 74.6098 23.449 74.8048 23.7869C74.9999 24.1247 75.3212 24.3713 75.698 24.4722C76.0749 24.5732 76.4764 24.5204 76.8143 24.3253L80.3901 22.2608C80.7279 22.0657 80.9745 21.7444 81.0755 21.3676C81.1764 20.9907 81.1236 20.5892 80.9285 20.2514C80.7334 19.9135 80.4121 19.667 80.0353 19.566C79.6585 19.465 79.2569 19.5179 78.9191 19.7129V19.7129Z" fill="#242E3B"/>
<path d="M74.8578 12.9873C74.5197 12.7926 74.1181 12.7403 73.7414 12.8417C73.3647 12.9431 73.0437 13.19 72.849 13.5281L71.2884 16.227C71.1918 16.3943 71.1291 16.579 71.1039 16.7705C71.0787 16.962 71.0914 17.1567 71.1414 17.3433C71.1914 17.5299 71.2777 17.7048 71.3953 17.8581C71.5129 18.0113 71.6595 18.1399 71.8268 18.2365C71.9941 18.3331 72.1788 18.3958 72.3703 18.421C72.5619 18.4463 72.7565 18.4335 72.9431 18.3835C73.1297 18.3335 73.3046 18.2473 73.4579 18.1297C73.6111 18.0121 73.7397 17.8654 73.8363 17.6981L75.3946 14.9971C75.5899 14.6594 75.6431 14.2579 75.5424 13.881C75.4418 13.5041 75.1955 13.1826 74.8578 12.9873Z" fill="#242E3B"/>
<path d="M82.7123 27.6694L79.5947 27.6715C79.2132 27.6839 78.8514 27.8442 78.5859 28.1185C78.3204 28.3928 78.1718 28.7595 78.1717 29.1412C78.1716 29.523 78.3199 29.8898 78.5852 30.1642C78.8506 30.4387 79.2122 30.5992 79.5938 30.6119L82.712 30.6129C83.1024 30.6129 83.4767 30.4579 83.7528 30.1819C84.0288 29.9059 84.1839 29.5316 84.1839 29.1413C84.184 28.7509 84.029 28.3766 83.753 28.1005C83.477 27.8245 83.1027 27.6694 82.7123 27.6694Z" fill="#242E3B"/>
<path d="M59.603 9.12088C55.1775 4.35974 51.9349 2.67539 49.6893 3.97189C49.2593 4.21965 48.8946 4.56638 48.6255 4.9833L13.139 51.705C12.9641 51.9359 12.8612 52.2133 12.8432 52.5024C12.8253 52.7915 12.8931 53.0795 13.0381 53.3302L18.3341 62.5032C18.4788 62.7539 18.6943 62.9564 18.9535 63.0852C19.2128 63.2141 19.5043 63.2636 19.7915 63.2275L78.0003 55.8601C78.4952 55.8351 78.977 55.6927 79.4059 55.4446C81.6515 54.1481 81.8141 50.4977 79.9036 44.2846C77.7499 37.8169 74.9083 31.599 71.4276 25.7378C68.0919 19.7917 64.1277 14.2209 59.603 9.12088ZM28.9425 59.1035L25.1035 52.4541C24.9085 52.1163 24.5872 51.8697 24.2103 51.7688C23.8335 51.6678 23.432 51.7207 23.0941 51.9157C22.7563 52.1108 22.5097 52.4321 22.4087 52.8089C22.3078 53.1858 22.3606 53.5873 22.5557 53.9251L25.7762 59.5032L20.3961 60.1846L16.0786 52.7064L48.0802 10.5589C48.3431 12.1058 48.7133 13.6326 49.1882 15.1281C49.2484 15.3243 49.3103 15.5195 49.3722 15.7147L38.0705 29.5016C37.9479 29.6509 37.8559 29.8229 37.7998 30.0078C37.7437 30.1927 37.7246 30.3868 37.7435 30.5791C37.7624 30.7713 37.819 30.958 37.91 31.1284C38.0011 31.2988 38.1248 31.4496 38.2741 31.5722C38.4234 31.6948 38.5954 31.7868 38.7803 31.8429C38.9652 31.899 39.1593 31.9182 39.3516 31.8993C39.5438 31.8804 39.7305 31.8238 39.9009 31.7327C40.0713 31.6417 40.2221 31.518 40.3447 31.3686L50.5211 18.9646C52.5212 24.0462 54.9103 28.966 57.6672 33.6801C61.0028 39.6251 64.9669 45.1949 69.4912 50.2939C70.5491 51.4528 71.6861 52.5368 72.8942 53.538L28.9425 59.1035ZM57.6105 27.4578C58.8313 27.0064 60.1725 27.0013 61.3968 27.4434C62.6211 27.8854 63.6496 28.7462 64.3004 29.8735C64.9512 31.0007 65.1824 32.3218 64.9531 33.6031C64.7239 34.8844 64.0488 36.0434 63.0475 36.875C62.0897 35.376 61.1427 33.8178 60.2147 32.2104C59.2867 30.6031 58.4241 29.025 57.6105 27.4578ZM77.0918 45.1505C78.8598 50.8986 78.1944 52.7481 77.9354 52.8976C77.9225 52.9045 77.9089 52.9097 77.8947 52.9131C77.8679 52.9147 77.842 52.9158 77.8148 52.9187L77.777 52.9233C77.1992 52.9105 75.2747 52.1891 71.648 48.2935C69.1026 45.4875 66.7708 42.495 64.6722 39.341C66.3018 38.0926 67.4216 36.294 67.8229 34.2807C68.2242 32.2675 67.8795 30.177 66.853 28.3991C65.8266 26.6213 64.1886 25.2775 62.2444 24.6184C60.3002 23.9593 58.1827 24.0298 56.2867 24.8169C54.5978 21.4119 53.1668 17.885 52.0056 14.2659C50.4398 9.18388 50.7807 7.15227 51.0585 6.64546L51.1436 6.53283L51.1618 6.52233C51.4216 6.37233 53.3551 6.72132 57.4492 11.1265C61.8237 16.0638 65.6564 21.4558 68.8816 27.21C72.2518 32.8795 75.0045 38.8938 77.0927 45.15L77.0918 45.1505Z" fill="#242E3B"/>
</g>
<defs>
<clipPath id="clip0_183_2178">
<rect width="92.164" height="83.655" fill="white" transform="translate(0.828125)"/>
</clipPath>
</defs>
</svg>
