<svg width="94" height="68" viewBox="0 0 94 68" fill="none" xmlns="http://www.w3.org/2000/svg">
<g clip-path="url(#clip0_183_2142)">
<path d="M24.8868 38.855C24.8868 38.855 14.3018 31.009 12.3088 31.881C10.3158 32.753 6.5798 37.981 6.5798 37.981C6.5798 37.981 8.4478 43.581 10.3158 45.827C10.5672 46.0939 10.7535 46.4154 10.8602 46.7662C10.9669 47.117 10.991 47.4878 10.9306 47.8495C10.8703 48.2112 10.7272 48.554 10.5125 48.8513C10.2978 49.1485 10.0172 49.3921 9.6928 49.563L3.2168 45.204C3.2168 45.204 6.5788 40.512 7.0528 36.392C7.5268 32.272 7.9258 29.592 9.6928 27.77C11.4598 25.948 13.7928 24.07 17.3998 24.321C21.0068 24.572 24.6378 26.398 24.8868 30.757C25.1358 35.116 24.7618 42.09 26.2568 45.204C27.7518 48.318 19.7808 49.563 19.7808 49.563V45.834L24.8868 38.855Z" fill="#10AF13"/>
<path d="M33.4941 21.93L36.0658 19.5L37.3158 15.0001C37.3158 15.0001 52.5658 13.5 62.5658 20.5C63.0658 10 62.5658 1.50005 62.5658 1.50005C62.5658 1.50005 44.2988 -1.15796 37.3158 5.26104C30.3328 11.68 33.4941 21.93 33.4941 21.93Z" fill="#10AF13"/>
<path d="M69.9657 34.6709L70.744 33.1968L71.5228 30.397C71.5228 30.397 81.0229 29.463 87.2499 33.823C87.5609 27.283 87.2499 21.9888 87.2499 21.9888C87.2499 21.9888 77.2707 22.6989 72.6727 24.4229C68.0747 26.1469 69.9657 34.6709 69.9657 34.6709Z" fill="#10AF13"/>
<path d="M82.2891 30.6101C79.1371 29.0341 73.2281 29.0161 72.9781 29.0161C72.6182 29.0161 72.273 29.1591 72.0186 29.4136C71.7641 29.668 71.6211 30.0132 71.6211 30.3731C71.6211 30.733 71.7641 31.0782 72.0186 31.3327C72.273 31.5871 72.6182 31.7301 72.9781 31.7301C74.5031 31.7301 78.9301 31.9651 81.0781 33.0381C81.3992 33.1927 81.7682 33.2148 82.1054 33.0996C82.4426 32.9844 82.721 32.7412 82.8804 32.4225C83.0399 32.1038 83.0675 31.7352 82.9574 31.3963C82.8473 31.0573 82.6084 30.7753 82.2921 30.6111L82.2891 30.6101Z" fill="#242E3B"/>
<path d="M89.054 49.928L83.454 48.328C83.3357 48.2938 83.2318 48.2222 83.1577 48.124C83.0836 48.0257 83.0433 47.9061 83.043 47.783V45.913C83.5048 45.5947 83.9396 45.2388 84.343 44.849C85.3132 43.9139 86.0841 42.792 86.6091 41.551C87.1342 40.31 87.4025 38.9755 87.398 37.628V35.047L87.94 33.964C88.5362 32.7677 88.8474 31.4496 88.849 30.113V23.119C88.849 22.7591 88.706 22.4139 88.4515 22.1595C88.197 21.905 87.8519 21.762 87.492 21.762H74.428C72.145 21.7646 69.9563 22.6727 68.342 24.287C66.7277 25.9013 65.8196 28.09 65.817 30.373V30.454C65.8188 31.5647 66.0775 32.6599 66.573 33.654L67.268 35.044V37.26C67.2674 38.9288 67.6613 40.5742 68.4176 42.0618C69.174 43.5494 70.2712 44.8372 71.62 45.82V47.78C71.62 48.08 71.62 48.207 70.5 48.528L67.766 49.309L59.856 46.434C59.8706 46.2446 59.8452 46.0541 59.7815 45.8752C59.7177 45.6962 59.617 45.5326 59.486 45.395L56.958 42.74V38.282C57.225 38.062 57.489 37.836 57.744 37.597C59.3257 36.1113 60.587 34.318 61.4506 32.3272C62.3142 30.3364 62.7618 28.19 62.766 26.02V22.46C63.7235 20.3916 64.2186 18.1393 64.217 15.86V1.35699C64.217 0.997096 64.074 0.65194 63.8195 0.397453C63.565 0.142966 63.2199 0 62.86 0H42.545C39.1082 0.00396995 35.8133 1.37098 33.3831 3.80116C30.953 6.23133 29.5859 9.52621 29.582 12.963V15.863C29.5803 18.1423 30.0755 20.3946 31.033 22.463V25.526C31.0247 27.9296 31.5392 30.3062 32.5407 32.4911C33.5422 34.6761 35.0068 36.6173 36.833 38.18V42.743L34.305 45.398C34.1739 45.5356 34.0732 45.6992 34.0095 45.8782C33.9457 46.0571 33.9203 46.2476 33.935 46.437L25.587 49.473C24.9913 49.69 24.4273 49.9856 23.91 50.352L22.599 49.697C26.499 47.997 27.738 45.609 27.799 45.491C27.8933 45.3026 27.9424 45.0947 27.9424 44.884C27.9424 44.6733 27.8933 44.4654 27.799 44.277C26.821 42.321 26.699 38.735 26.607 35.853C26.575 34.894 26.545 33.988 26.488 33.181C26.025 26.673 21.078 21.765 14.979 21.765C8.87997 21.765 3.93297 26.67 3.46597 33.178C3.40897 33.985 3.37897 34.891 3.34697 35.851C3.24697 38.732 3.13297 42.318 2.15497 44.274C2.06064 44.4624 2.01152 44.6703 2.01152 44.881C2.01152 45.0917 2.06064 45.2996 2.15497 45.488C2.21397 45.607 3.44797 47.988 7.35497 49.688L3.71397 51.509C2.7646 51.9818 1.96655 52.7109 1.41019 53.6138C0.853831 54.5168 0.561387 55.5574 0.565971 56.618V66.642C0.565971 67.0019 0.70894 67.3471 0.963427 67.6015C1.21791 67.856 1.56307 67.999 1.92297 67.999C2.28287 67.999 2.62803 67.856 2.88251 67.6015C3.137 67.3471 3.27997 67.0019 3.27997 66.642V56.618C3.27709 56.0606 3.43067 55.5135 3.72324 55.0391C4.0158 54.5646 4.43563 54.1817 4.93497 53.934L9.46597 51.672L11.043 53.172C12.1037 54.1812 13.5118 54.744 14.976 54.744C16.4401 54.744 17.8482 54.1812 18.909 53.172L20.486 51.672L21.964 52.411C21.2523 53.5464 20.8742 54.859 20.873 56.199V66.642C20.873 67.0019 21.0159 67.3471 21.2704 67.6015C21.5249 67.856 21.8701 67.999 22.23 67.999C22.5899 67.999 22.935 67.856 23.1895 67.6015C23.444 67.3471 23.587 67.0019 23.587 66.642V56.199C23.5889 55.2867 23.8705 54.3969 24.3939 53.6496C24.9173 52.9024 25.6572 52.3336 26.514 52.02L35.314 48.82L38.978 54.32C39.2079 54.666 39.512 54.9565 39.8681 55.1705C40.2242 55.3845 40.6235 55.5165 41.037 55.557C41.131 55.5663 41.2243 55.571 41.317 55.571C41.6852 55.571 42.0497 55.4984 42.3898 55.3574C42.7299 55.2163 43.0389 55.0096 43.299 54.749L45.534 52.514V66.648C45.534 67.0079 45.6769 67.3531 45.9314 67.6075C46.1859 67.862 46.5311 68.005 46.891 68.005C47.2509 68.005 47.596 67.862 47.8505 67.6075C48.105 67.3531 48.248 67.0079 48.248 66.648V52.509L50.483 54.744C50.743 55.0048 51.0519 55.2117 51.392 55.3529C51.7321 55.4941 52.0967 55.5669 52.465 55.567C52.5576 55.567 52.651 55.5623 52.745 55.553C53.1586 55.5126 53.5581 55.3807 53.9144 55.1667C54.2707 54.9528 54.5749 54.6622 54.805 54.316L58.469 48.816L67.269 52.016C68.1257 52.3296 68.8657 52.8984 69.3891 53.6456C69.9124 54.3929 70.1941 55.2827 70.196 56.195V66.638C70.196 66.9979 70.3389 67.3431 70.5934 67.5975C70.8479 67.852 71.1931 67.995 71.553 67.995C71.9129 67.995 72.258 67.852 72.5125 67.5975C72.767 67.3431 72.91 66.9979 72.91 66.638V56.2C72.9068 54.3483 72.1876 52.5696 70.903 51.236L71.238 51.136C71.6719 51.0224 72.0946 50.8697 72.501 50.68L75.965 54.144V66.644C75.965 67.0039 76.1079 67.3491 76.3624 67.6035C76.6169 67.858 76.9621 68.001 77.322 68.001C77.6819 68.001 78.027 67.858 78.2815 67.6035C78.536 67.3491 78.679 67.0039 78.679 66.644V54.144L82.119 50.704C82.3035 50.7987 82.4967 50.8754 82.696 50.933L88.296 52.533C88.9209 52.7136 89.4704 53.0918 89.8622 53.6111C90.254 54.1303 90.4669 54.7625 90.469 55.413V66.638C90.469 66.9979 90.6119 67.3431 90.8664 67.5975C91.1209 67.852 91.4661 67.995 91.826 67.995C92.1859 67.995 92.531 67.852 92.7855 67.5975C93.04 67.3431 93.183 66.9979 93.183 66.638V55.418C93.1798 54.1798 92.7758 52.9758 92.0316 51.9863C91.2873 50.9967 90.2427 50.2746 89.054 49.928ZM9.26597 47.534C7.58858 47.01 6.0839 46.0426 4.91097 44.734C5.28912 43.6833 5.5484 42.5935 5.68397 41.485C6.43065 43.2706 7.6738 44.8046 9.26597 45.905V47.534ZM17.039 51.206C16.4824 51.7354 15.7436 52.0307 14.9755 52.0307C14.2073 52.0307 13.4685 51.7354 12.912 51.206L11.65 50.006C11.8674 49.5982 11.9807 49.1431 11.98 48.681V47.234C13.9309 47.8405 16.02 47.8405 17.971 47.234V48.679C17.9701 49.1414 18.0835 49.5969 18.301 50.005L17.039 51.206ZM14.976 44.977C13.0278 44.9749 11.16 44.2 9.78249 42.8225C8.40493 41.4449 7.63009 39.5772 7.62797 37.629C7.62913 37.4316 7.58697 37.2364 7.50445 37.0571C7.42193 36.8778 7.30107 36.7188 7.1504 36.5913C6.99973 36.4638 6.82291 36.3709 6.63243 36.3192C6.44194 36.2675 6.24243 36.2582 6.04797 36.292C6.04797 36.175 6.05597 36.058 6.05997 35.943C6.08997 35.01 6.11897 34.129 6.17297 33.373C6.31542 31.0056 7.28853 28.7644 8.92097 27.044C9.70704 26.2314 10.6485 25.5852 11.6894 25.1439C12.7303 24.7026 13.8494 24.4752 14.98 24.4752C16.1106 24.4752 17.2296 24.7026 18.2705 25.1439C19.3114 25.5852 20.2529 26.2314 21.039 27.044C22.6689 28.7644 23.6402 31.0043 23.782 33.37C23.836 34.126 23.865 35.007 23.896 35.94L23.904 36.182C22.3125 33.8153 19.9417 32.0814 17.204 31.282C15.536 30.7454 13.7951 30.4695 12.043 30.464C11.6878 30.4738 11.3507 30.6224 11.104 30.878L8.65597 33.417C8.40614 33.6761 8.26947 34.0239 8.27603 34.3837C8.2826 34.7436 8.43185 35.0862 8.69097 35.336C8.95009 35.5858 9.29784 35.7225 9.65772 35.7159C10.0176 35.7094 10.3601 35.5601 10.61 35.301L12.647 33.188C14.401 33.274 20.047 33.93 22.24 38.764C21.9724 40.4961 21.0931 42.0751 19.7613 43.2145C18.4296 44.354 16.7336 44.9786 14.981 44.975L14.976 44.977ZM20.684 47.538V45.92C22.2797 44.8222 23.5238 43.2861 24.266 41.497C24.4019 42.6031 24.6612 43.6906 25.039 44.739C23.8653 46.0433 22.363 47.0085 20.689 47.534L20.684 47.538ZM33.746 25.523V22.157C33.746 21.9527 33.6998 21.751 33.611 21.567C32.7454 19.7915 32.2954 17.8422 32.295 15.867V12.967C32.2971 10.2489 33.3776 7.64269 35.2993 5.72043C37.221 3.79816 39.8269 2.71691 42.545 2.714H61.499V15.865C61.4985 17.8402 61.0485 19.7895 60.183 21.565C60.0941 21.749 60.048 21.9507 60.048 22.155V26.018C60.0559 27.8187 59.6905 29.6016 58.9746 31.2539C58.2588 32.9062 57.2081 34.3922 55.889 35.618C55.5567 35.9294 55.209 36.2238 54.847 36.5L54.824 36.517C52.306 38.4302 49.1787 39.3638 46.024 39.144C42.633 38.8505 39.4797 37.2812 37.2008 34.753C34.9219 32.2248 33.6872 28.9262 33.746 25.523ZM41.386 52.823C41.3765 52.8334 41.3646 52.8414 41.3514 52.8461C41.3381 52.8508 41.3239 52.8521 41.31 52.85C41.296 52.8493 41.2824 52.8452 41.2704 52.838C41.2584 52.8309 41.2483 52.8209 41.241 52.809L37.021 46.479L38.379 45.052L44.779 49.428L41.386 52.823ZM46.897 47.587L39.549 42.564V40.034C41.4909 41.0876 43.6383 41.7075 45.843 41.851C46.201 41.8743 46.557 41.886 46.911 41.886C49.4656 41.8909 51.9829 41.2731 54.245 40.086V42.565L46.897 47.587ZM52.553 52.809C52.5457 52.8209 52.5356 52.8309 52.5235 52.838C52.5115 52.8452 52.4979 52.8493 52.484 52.85C52.4701 52.8522 52.4558 52.8509 52.4425 52.8462C52.4292 52.8415 52.4174 52.8335 52.408 52.823L49.008 49.423L55.408 45.047L56.766 46.474L52.553 52.809ZM77.329 51.664L74.25 48.585C74.3072 48.3202 74.3354 48.0499 74.334 47.779V47.206C75.2022 47.4926 76.1071 47.6526 77.021 47.681C77.121 47.681 77.229 47.681 77.333 47.681C78.3474 47.6818 79.3561 47.5294 80.325 47.229V47.775C80.3257 48.0418 80.3592 48.3074 80.425 48.566L77.329 51.664ZM82.446 42.898C81.7412 43.5862 80.9044 44.1245 79.9859 44.4804C79.0675 44.8364 78.0864 45.0026 77.102 44.969C75.1515 44.8461 73.3233 43.9765 71.9973 42.5409C70.6712 41.1053 69.9491 39.2141 69.981 37.26V34.723C69.9811 34.5123 69.9322 34.3045 69.838 34.116L69 32.44C68.6923 31.8224 68.5318 31.142 68.531 30.452V30.371C68.531 28.8062 69.1526 27.3055 70.259 26.1991C71.3655 25.0926 72.8662 24.471 74.431 24.471H86.131V30.106C86.1296 31.0213 85.9164 31.9239 85.508 32.743L84.823 34.113C84.7288 34.3015 84.6798 34.5093 84.68 34.72V37.62C84.6838 38.6054 84.4878 39.5813 84.1038 40.4888C83.7198 41.3963 83.1559 42.2166 82.446 42.9V42.898Z" fill="#242E3B"/>
<path d="M86.0347 56.5811C85.6748 56.5811 85.3297 56.724 85.0752 56.9785C84.8207 57.233 84.6777 57.5782 84.6777 57.938V66.6381C84.6777 66.998 84.8207 67.3431 85.0752 67.5976C85.3297 67.8521 85.6748 67.9951 86.0347 67.9951C86.3946 67.9951 86.7398 67.8521 86.9943 67.5976C87.2487 67.3431 87.3917 66.998 87.3917 66.6381V57.938C87.3917 57.5782 87.2487 57.233 86.9943 56.9785C86.7398 56.724 86.3946 56.5811 86.0347 56.5811Z" fill="#242E3B"/>
<path d="M7.72614 58.374C7.54794 58.374 7.37148 58.4091 7.20684 58.4773C7.0422 58.5455 6.89261 58.6455 6.7666 58.7715C6.64059 58.8975 6.54063 59.0471 6.47243 59.2117C6.40424 59.3764 6.36914 59.5528 6.36914 59.731V66.646C6.36914 67.0059 6.51211 67.3511 6.7666 67.6056C7.02108 67.86 7.36624 68.003 7.72614 68.003C8.08604 68.003 8.4312 67.86 8.68568 67.6056C8.94017 67.3511 9.08314 67.0059 9.08314 66.646V59.735C9.08367 59.5565 9.04896 59.3796 8.981 59.2145C8.91304 59.0494 8.81316 58.8993 8.6871 58.7729C8.56104 58.6465 8.41127 58.5461 8.24637 58.4777C8.08147 58.4092 7.90468 58.374 7.72614 58.374Z" fill="#242E3B"/>
<path d="M58.0118 16.356C52.8798 11.224 42.1428 12.2051 37.7648 12.8651C37.1002 12.9629 36.4933 13.2977 36.056 13.8076C35.6187 14.3175 35.3803 14.9683 35.3848 15.6401V18.7661C35.3848 19.126 35.5278 19.4711 35.7823 19.7256C36.0368 19.9801 36.3819 20.123 36.7418 20.123C37.1017 20.123 37.4469 19.9801 37.7014 19.7256C37.9559 19.4711 38.0988 19.126 38.0988 18.7661V15.6401C38.0979 15.6188 38.1045 15.5979 38.1175 15.5811C38.1305 15.5642 38.149 15.5525 38.1698 15.5481C41.0855 15.1015 44.0395 14.9571 46.9848 15.1171C51.2158 15.3991 54.2848 16.461 56.0938 18.274C56.2194 18.402 56.3691 18.5039 56.5342 18.5737C56.6994 18.6435 56.8767 18.6799 57.056 18.6807C57.2353 18.6816 57.413 18.6469 57.5788 18.5787C57.7446 18.5105 57.8953 18.4101 58.0221 18.2833C58.1488 18.1565 58.2492 18.0058 58.3174 17.84C58.3857 17.6742 58.4203 17.4965 58.4195 17.3172C58.4186 17.138 58.3822 16.9606 58.3124 16.7955C58.2426 16.6303 58.1408 16.4806 58.0128 16.3551L58.0118 16.356Z" fill="#242E3B"/>
<path d="M30.939 59.4819C30.7608 59.4819 30.5844 59.517 30.4197 59.5852C30.2551 59.6534 30.1055 59.7534 29.9795 59.8794C29.8535 60.0054 29.7535 60.155 29.6853 60.3196C29.6171 60.4843 29.582 60.6607 29.582 60.8389V66.6389C29.582 66.9988 29.725 67.344 29.9795 67.5985C30.234 67.853 30.5791 67.9959 30.939 67.9959C31.2989 67.9959 31.6441 67.853 31.8986 67.5985C32.1531 67.344 32.296 66.9988 32.296 66.6389V60.8389C32.296 60.6607 32.2609 60.4843 32.1927 60.3196C32.1245 60.155 32.0246 60.0054 31.8986 59.8794C31.7726 59.7534 31.623 59.6534 31.4583 59.5852C31.2937 59.517 31.1172 59.4819 30.939 59.4819Z" fill="#242E3B"/>
<path d="M62.856 59.4819C62.6778 59.4819 62.5014 59.517 62.3367 59.5852C62.1721 59.6534 62.0225 59.7534 61.8965 59.8794C61.7705 60.0054 61.6705 60.155 61.6023 60.3196C61.5341 60.4843 61.499 60.6607 61.499 60.8389V66.6389C61.499 66.9988 61.642 67.344 61.8965 67.5985C62.151 67.853 62.4961 67.9959 62.856 67.9959C63.2159 67.9959 63.5611 67.853 63.8156 67.5985C64.0701 67.344 64.213 66.9988 64.213 66.6389V60.8389C64.213 60.6607 64.1779 60.4843 64.1097 60.3196C64.0415 60.155 63.9416 60.0054 63.8156 59.8794C63.6896 59.7534 63.54 59.6534 63.3753 59.5852C63.2107 59.517 63.0342 59.4819 62.856 59.4819Z" fill="#242E3B"/>
</g>
<defs>
<clipPath id="clip0_183_2142">
<rect width="92.628" height="68" fill="white" transform="translate(0.565918)"/>
</clipPath>
</defs>
</svg>
