<svg width="90" height="65" viewBox="0 0 90 65" fill="none" xmlns="http://www.w3.org/2000/svg">
<g clip-path="url(#clip0_183_1970)">
<path d="M88 15.127H28V62.127H88V15.127Z" fill="#10AF13"/>
<path d="M34 48.627C34 47.7985 33.3284 47.127 32.5 47.127C31.6716 47.127 31 47.7985 31 48.627V61.627C31 62.4554 31.6716 63.127 32.5 63.127C33.3284 63.127 34 62.4554 34 61.627V48.627Z" fill="white"/>
<path d="M42.4311 41.2251C42.7955 41.2251 43.145 41.3699 43.4027 41.6275C43.6604 41.8852 43.8051 42.2347 43.8051 42.5991V61.8371C43.8051 62.2015 43.6604 62.551 43.4027 62.8087C43.145 63.0663 42.7955 63.2111 42.4311 63.2111C42.0667 63.2111 41.7172 63.0663 41.4596 62.8087C41.2019 62.551 41.0571 62.2015 41.0571 61.8371V42.5991C41.0571 42.2347 41.2019 41.8852 41.4596 41.6275C41.7172 41.3699 42.0667 41.2251 42.4311 41.2251Z" fill="white"/>
<path d="M53.4238 31.147C53.7882 31.147 54.1377 31.2917 54.3954 31.5494C54.653 31.8071 54.7978 32.1566 54.7978 32.521V61.837C54.7978 62.2014 54.653 62.5509 54.3954 62.8085C54.1377 63.0662 53.7882 63.211 53.4238 63.211C53.0594 63.211 52.7099 63.0662 52.4522 62.8085C52.1946 62.5509 52.0498 62.2014 52.0498 61.837V32.521C52.0498 32.1566 52.1946 31.8071 52.4522 31.5494C52.7099 31.2917 53.0594 31.147 53.4238 31.147Z" fill="white"/>
<path d="M63.501 40.3091C63.8654 40.3091 64.2148 40.4538 64.4725 40.7115C64.7302 40.9692 64.875 41.3187 64.875 41.6831V61.8371C64.875 62.2015 64.7302 62.551 64.4725 62.8086C64.2148 63.0663 63.8654 63.2111 63.501 63.2111C63.1365 63.2111 62.7871 63.0663 62.5294 62.8086C62.2717 62.551 62.127 62.2015 62.127 61.8371V41.6831C62.127 41.3187 62.2717 40.9692 62.5294 40.7115C62.7871 40.4538 63.1365 40.3091 63.501 40.3091Z" fill="white"/>
<path d="M74.4951 25.6509C74.8595 25.6509 75.209 25.7956 75.4667 26.0533C75.7243 26.311 75.8691 26.6605 75.8691 27.0249V61.8369C75.8691 62.2013 75.7243 62.5508 75.4667 62.8084C75.209 63.0661 74.8595 63.2109 74.4951 63.2109C74.1307 63.2109 73.7812 63.0661 73.5235 62.8084C73.2659 62.5508 73.1211 62.2013 73.1211 61.8369V27.0249C73.1211 26.6605 73.2659 26.311 73.5235 26.0533C73.7812 25.7956 74.1307 25.6509 74.4951 25.6509Z" fill="white"/>
<path d="M82.25 0H6.97C5.12209 0.00211734 3.35047 0.737138 2.0438 2.04381C0.737135 3.35048 0.00211734 5.12209 0 6.97L0 57.157C0.00211734 59.0049 0.737135 60.7765 2.0438 62.0832C3.35047 63.3899 5.12209 64.1249 6.97 64.127H82.25C84.0979 64.1249 85.8695 63.3899 87.1762 62.0832C88.4829 60.7765 89.2179 59.0049 89.22 57.157V6.97C89.2179 5.12209 88.4829 3.35048 87.1762 2.04381C85.8695 0.737138 84.0979 0.00211734 82.25 0ZM2.788 57.157V11.157H20.911V61.344H6.97C5.8604 61.3427 4.79671 60.901 4.01258 60.1159C3.22844 59.3308 2.788 58.2666 2.788 57.157ZM82.25 61.339H23.7V11.153H78.068C78.4377 11.153 78.7923 11.0061 79.0537 10.7447C79.3151 10.4833 79.462 10.1287 79.462 9.759C79.462 9.38929 79.3151 9.03472 79.0537 8.77329C78.7923 8.51187 78.4377 8.365 78.068 8.365H2.788V6.97C2.78932 5.86127 3.23035 4.79833 4.01434 4.01434C4.79833 3.23035 5.86127 2.78933 6.97 2.788H82.25C83.3587 2.78933 84.4217 3.23035 85.2057 4.01434C85.9896 4.79833 86.4307 5.86127 86.432 6.97V8.364H83.644C83.2743 8.364 82.9197 8.51087 82.6583 8.77229C82.3969 9.03372 82.25 9.38829 82.25 9.758C82.25 10.1277 82.3969 10.4823 82.6583 10.7437C82.9197 11.0051 83.2743 11.152 83.644 11.152H86.432V57.152C86.432 58.2616 85.9916 59.3258 85.2074 60.1109C84.4233 60.896 83.3596 61.3377 82.25 61.339Z" fill="#242E3B"/>
<path d="M6.97018 4.18188C6.64821 4.18221 6.33631 4.29414 6.0876 4.4986C5.83889 4.70307 5.66875 4.98743 5.60615 5.30325C5.54356 5.61908 5.59238 5.94684 5.7443 6.23071C5.89622 6.51458 6.14186 6.73701 6.43936 6.86012C6.73686 6.98322 7.06784 6.99939 7.37593 6.90587C7.68401 6.81235 7.95015 6.61492 8.12902 6.34721C8.30789 6.07949 8.38842 5.75805 8.35691 5.43763C8.32539 5.11721 8.18378 4.81762 7.95618 4.58988C7.69389 4.3296 7.33969 4.18303 6.97018 4.18188Z" fill="#242E3B"/>
<path d="M11.1528 4.18188C10.8308 4.18221 10.5189 4.29414 10.2702 4.4986C10.0215 4.70307 9.85137 4.98743 9.78877 5.30325C9.72617 5.61908 9.77499 5.94684 9.92692 6.23071C10.0788 6.51458 10.3245 6.73701 10.622 6.86012C10.9195 6.98322 11.2505 6.99939 11.5585 6.90587C11.8666 6.81235 12.1328 6.61492 12.3116 6.34721C12.4905 6.07949 12.571 5.75805 12.5395 5.43763C12.508 5.11721 12.3664 4.81762 12.1388 4.58988C11.8765 4.3296 11.5223 4.18303 11.1528 4.18188Z" fill="#242E3B"/>
<path d="M15.3349 4.18188C15.013 4.18221 14.7011 4.29414 14.4523 4.4986C14.2036 4.70307 14.0335 4.98743 13.9709 5.30325C13.9083 5.61908 13.9571 5.94684 14.109 6.23071C14.261 6.51458 14.5066 6.73701 14.8041 6.86012C15.1016 6.98322 15.4326 6.99939 15.7407 6.90587C16.0488 6.81235 16.3149 6.61492 16.4938 6.34721C16.6726 6.07949 16.7532 5.75805 16.7217 5.43763C16.6901 5.11721 16.5485 4.81762 16.3209 4.58988C16.0586 4.3296 15.7044 4.18303 15.3349 4.18188Z" fill="#242E3B"/>
<path d="M6.97017 16.7289H16.7292C17.0989 16.7289 17.4535 16.582 17.7149 16.3206C17.9763 16.0592 18.1232 15.7046 18.1232 15.3349C18.1232 14.9652 17.9763 14.6106 17.7149 14.3492C17.4535 14.0878 17.0989 13.9409 16.7292 13.9409H6.97017C6.60046 13.9409 6.24589 14.0878 5.98447 14.3492C5.72304 14.6106 5.57617 14.9652 5.57617 15.3349C5.57617 15.7046 5.72304 16.0592 5.98447 16.3206C6.24589 16.582 6.60046 16.7289 6.97017 16.7289Z" fill="#242E3B"/>
<path d="M16.7292 19.5171H6.97017C6.60046 19.5171 6.24589 19.664 5.98447 19.9254C5.72304 20.1868 5.57617 20.5414 5.57617 20.9111C5.57617 21.2808 5.72304 21.6354 5.98447 21.8968C6.24589 22.1582 6.60046 22.3051 6.97017 22.3051H16.7292C17.0989 22.3051 17.4535 22.1582 17.7149 21.8968C17.9763 21.6354 18.1232 21.2808 18.1232 20.9111C18.1232 20.5414 17.9763 20.1868 17.7149 19.9254C17.4535 19.664 17.0989 19.5171 16.7292 19.5171Z" fill="#242E3B"/>
<path d="M16.7292 25.093H6.97017C6.60046 25.093 6.24589 25.2399 5.98447 25.5013C5.72304 25.7627 5.57617 26.1173 5.57617 26.487C5.57617 26.8567 5.72304 27.2113 5.98447 27.4727C6.24589 27.7341 6.60046 27.881 6.97017 27.881H16.7292C17.0989 27.881 17.4535 27.7341 17.7149 27.4727C17.9763 27.2113 18.1232 26.8567 18.1232 26.487C18.1232 26.1173 17.9763 25.7627 17.7149 25.5013C17.4535 25.2399 17.0989 25.093 16.7292 25.093Z" fill="#242E3B"/>
<path d="M12.5462 30.6699H6.97017C6.60046 30.6699 6.24589 30.8168 5.98447 31.0782C5.72304 31.3396 5.57617 31.6942 5.57617 32.0639C5.57617 32.4336 5.72304 32.7882 5.98447 33.0496C6.24589 33.311 6.60046 33.4579 6.97017 33.4579H12.5462C12.9159 33.4579 13.2705 33.311 13.5319 33.0496C13.7933 32.7882 13.9402 32.4336 13.9402 32.0639C13.9402 31.6942 13.7933 31.3396 13.5319 31.0782C13.2705 30.8168 12.9159 30.6699 12.5462 30.6699Z" fill="#242E3B"/>
<path d="M12.5462 36.2461H6.97017C6.60046 36.2461 6.24589 36.393 5.98447 36.6544C5.72304 36.9158 5.57617 37.2704 5.57617 37.6401C5.57617 38.0098 5.72304 38.3644 5.98447 38.6258C6.24589 38.8872 6.60046 39.0341 6.97017 39.0341H12.5462C12.9159 39.0341 13.2705 38.8872 13.5319 38.6258C13.7933 38.3644 13.9402 38.0098 13.9402 37.6401C13.9402 37.2704 13.7933 36.9158 13.5319 36.6544C13.2705 36.393 12.9159 36.2461 12.5462 36.2461Z" fill="#242E3B"/>
<path d="M8.36417 41.822H6.97017C6.60046 41.822 6.24589 41.9689 5.98447 42.2303C5.72304 42.4917 5.57617 42.8463 5.57617 43.216C5.57617 43.5857 5.72304 43.9403 5.98447 44.2017C6.24589 44.4631 6.60046 44.61 6.97017 44.61H8.36417C8.73388 44.61 9.08845 44.4631 9.34988 44.2017C9.61131 43.9403 9.75817 43.5857 9.75817 43.216C9.75817 42.8463 9.61131 42.4917 9.34988 42.2303C9.08845 41.9689 8.73388 41.822 8.36417 41.822Z" fill="#242E3B"/>
<path d="M34.7919 44.2019C35.341 44.2028 35.884 44.0868 36.3847 43.8615C36.8855 43.6361 37.3325 43.3067 37.696 42.8952C38.0594 42.4836 38.3311 41.9994 38.4928 41.4746C38.6546 40.9499 38.7026 40.3967 38.6339 39.8519L42.4339 37.9519C43.0869 38.5816 43.9403 38.962 44.8451 39.0266C45.7499 39.0913 46.6487 38.8361 47.3846 38.3056C48.1205 37.7752 48.6467 37.0031 48.8714 36.1242C49.096 35.2454 49.0049 34.3155 48.6139 33.4969L53.7779 28.3329C54.3381 28.6008 54.9545 28.7298 55.5751 28.7089C56.1956 28.688 56.802 28.5179 57.3429 28.2129L62.1769 32.4419C61.9287 33.0635 61.8458 33.7388 61.9364 34.4019C62.0269 35.065 62.2877 35.6934 62.6934 36.2257C63.0991 36.7581 63.6358 37.1762 64.2512 37.4393C64.8666 37.7024 65.5396 37.8015 66.2048 37.7271C66.8699 37.6526 67.5044 37.407 68.0463 37.0143C68.5883 36.6216 69.0192 36.0951 69.2971 35.4863C69.575 34.8774 69.6904 34.2069 69.632 33.5402C69.5736 32.8734 69.3434 32.2332 68.9639 31.6819L74.9979 23.3819C75.8749 23.6438 76.8162 23.5872 77.6554 23.2221C78.4947 22.8569 79.1778 22.2068 79.5839 21.3867C79.9901 20.5665 80.0932 19.6292 79.875 18.7403C79.6568 17.8515 79.1314 17.0684 78.3916 16.5296C77.6517 15.9908 76.7452 15.7309 75.8323 15.7959C74.9194 15.861 74.0589 16.2467 73.4029 16.8849C72.7469 17.5231 72.3377 18.3728 72.2477 19.2835C72.1577 20.1943 72.3926 21.1076 72.9109 21.8619L66.8769 30.1619C66.3799 30.0137 65.858 29.9671 65.3426 30.025C64.8272 30.0829 64.3287 30.2441 63.8769 30.4989L59.0429 26.2699C59.2808 25.6724 59.3661 25.0249 59.2912 24.3861C59.2162 23.7473 58.9832 23.1373 58.6134 22.6111C58.2435 22.0849 57.7484 21.6591 57.1728 21.3722C56.5971 21.0853 55.9591 20.9463 55.3162 20.9678C54.6734 20.9893 54.0461 21.1705 53.4908 21.4952C52.9356 21.8199 52.4701 22.2778 52.1362 22.8276C51.8023 23.3773 51.6106 24.0015 51.5784 24.6439C51.5462 25.2863 51.6746 25.9266 51.9519 26.5069L46.7879 31.6709C46.1977 31.3887 45.5456 31.2606 44.8925 31.2987C44.2394 31.3368 43.6066 31.5399 43.0532 31.8888C42.4998 32.2378 42.0439 32.7213 41.728 33.2942C41.4121 33.8671 41.2466 34.5107 41.2469 35.1649C41.2474 35.3248 41.2578 35.4844 41.2779 35.6429L37.4779 37.5429C37.0217 37.1029 36.4644 36.7816 35.8549 36.6073C35.2455 36.4329 34.6026 36.4109 33.9826 36.543C33.3627 36.6752 32.7847 36.9575 32.2994 37.3653C31.814 37.773 31.4362 38.2937 31.1991 38.8815C30.962 39.4694 30.8728 40.1064 30.9394 40.7368C31.006 41.3672 31.2264 41.9715 31.5811 42.4969C31.9358 43.0222 32.4141 43.4523 32.9739 43.7496C33.5338 44.0469 34.158 44.2022 34.7919 44.2019ZM76.0999 18.3839C76.3552 18.3839 76.6048 18.4597 76.8171 18.6015C77.0294 18.7434 77.1949 18.945 77.2926 19.1809C77.3904 19.4168 77.4159 19.6764 77.3661 19.9268C77.3163 20.1772 77.1933 20.4073 77.0128 20.5878C76.8322 20.7684 76.6022 20.8913 76.3518 20.9411C76.1013 20.9909 75.8418 20.9654 75.6059 20.8677C75.37 20.77 75.1683 20.6045 75.0265 20.3922C74.8846 20.1799 74.8089 19.9303 74.8089 19.6749C74.8094 19.3328 74.9456 19.0048 75.1877 18.763C75.4297 18.5212 75.7578 18.3852 76.0999 18.3849V18.3839ZM65.7729 32.5839C66.0282 32.5839 66.2778 32.6597 66.4901 32.8015C66.7024 32.9434 66.8679 33.145 66.9656 33.3809C67.0633 33.6168 67.0889 33.8764 67.0391 34.1268C66.9893 34.3772 66.8663 34.6073 66.6858 34.7878C66.5052 34.9684 66.2752 35.0913 66.0248 35.1411C65.7743 35.1909 65.5148 35.1654 65.2789 35.0677C65.043 34.97 64.8413 34.8045 64.6995 34.5922C64.5576 34.3799 64.4819 34.1303 64.4819 33.8749C64.4822 33.5326 64.6183 33.2044 64.8603 32.9624C65.1024 32.7203 65.4306 32.5842 65.7729 32.5839ZM55.4459 23.5479C55.7012 23.5479 55.9508 23.6237 56.1632 23.7655C56.3755 23.9074 56.5409 24.109 56.6386 24.3449C56.7363 24.5808 56.7619 24.8404 56.7121 25.0908C56.6623 25.3412 56.5393 25.5713 56.3588 25.7518C56.1782 25.9324 55.9482 26.0553 55.6978 26.1051C55.4473 26.1549 55.1878 26.1294 54.9519 26.0317C54.716 25.9339 54.5143 25.7685 54.3725 25.5562C54.2306 25.3439 54.1549 25.0943 54.1549 24.8389C54.1552 24.4966 54.2913 24.1684 54.5333 23.9264C54.7754 23.6843 55.1036 23.5482 55.4459 23.5479ZM45.1189 33.8749C45.3742 33.8749 45.6238 33.9507 45.8361 34.0925C46.0485 34.2344 46.2139 34.436 46.3116 34.6719C46.4093 34.9078 46.4349 35.1674 46.3851 35.4178C46.3353 35.6682 46.2123 35.8983 46.0318 36.0788C45.8512 36.2594 45.6212 36.3823 45.3708 36.4321C45.1203 36.4819 44.8608 36.4564 44.6249 36.3587C44.389 36.261 44.1873 36.0955 44.0455 35.8832C43.9036 35.6709 43.8279 35.4213 43.8279 35.1659C43.8282 34.8236 43.9643 34.4954 44.2063 34.2534C44.4484 34.0113 44.7766 33.8752 45.1189 33.8749ZM34.7919 39.0389C35.0472 39.0389 35.2968 39.1147 35.5091 39.2565C35.7214 39.3984 35.8869 39.6 35.9846 39.8359C36.0823 40.0718 36.1079 40.3314 36.0581 40.5818C36.0083 40.8322 35.8853 41.0623 35.7048 41.2428C35.5242 41.4234 35.2942 41.5463 35.0438 41.5961C34.7933 41.6459 34.5338 41.6204 34.2979 41.5227C34.062 41.425 33.8603 41.2595 33.7185 41.0472C33.5766 40.8349 33.5009 40.5853 33.5009 40.3299C33.5012 39.9876 33.6373 39.6594 33.8793 39.4174C34.1214 39.1753 34.4496 39.0392 34.7919 39.0389Z" fill="#242E3B"/>
<path d="M36 48.627C36 47.7985 35.3284 47.127 34.5 47.127C33.6716 47.127 33 47.7985 33 48.627V61.627C33 62.4554 33.6716 63.127 34.5 63.127C35.3284 63.127 36 62.4554 36 61.627V48.627Z" fill="#242E3B"/>
<path d="M44.4311 41.2251C44.7955 41.2251 45.145 41.3699 45.4027 41.6275C45.6604 41.8852 45.8051 42.2347 45.8051 42.5991V61.8371C45.8051 62.2015 45.6604 62.551 45.4027 62.8087C45.145 63.0663 44.7955 63.2111 44.4311 63.2111C44.0667 63.2111 43.7172 63.0663 43.4596 62.8087C43.2019 62.551 43.0571 62.2015 43.0571 61.8371V42.5991C43.0571 42.2347 43.2019 41.8852 43.4596 41.6275C43.7172 41.3699 44.0667 41.2251 44.4311 41.2251Z" fill="#242E3B"/>
<path d="M55.4238 31.1479C55.7882 31.1479 56.1377 31.2927 56.3954 31.5504C56.653 31.8081 56.7978 32.1575 56.7978 32.5219V61.8379C56.7978 62.2024 56.653 62.5518 56.3954 62.8095C56.1377 63.0672 55.7882 63.2119 55.4238 63.2119C55.0594 63.2119 54.7099 63.0672 54.4522 62.8095C54.1946 62.5518 54.0498 62.2024 54.0498 61.8379V32.5219C54.0498 32.1575 54.1946 31.8081 54.4522 31.5504C54.7099 31.2927 55.0594 31.1479 55.4238 31.1479Z" fill="#242E3B"/>
<path d="M65.501 40.3091C65.8654 40.3091 66.2148 40.4538 66.4725 40.7115C66.7302 40.9692 66.875 41.3187 66.875 41.6831V61.8371C66.875 62.2015 66.7302 62.551 66.4725 62.8086C66.2148 63.0663 65.8654 63.2111 65.501 63.2111C65.1365 63.2111 64.7871 63.0663 64.5294 62.8086C64.2717 62.551 64.127 62.2015 64.127 61.8371V41.6831C64.127 41.3187 64.2717 40.9692 64.5294 40.7115C64.7871 40.4538 65.1365 40.3091 65.501 40.3091Z" fill="#242E3B"/>
<path d="M76.4951 25.6509C76.8595 25.6509 77.209 25.7956 77.4667 26.0533C77.7243 26.311 77.8691 26.6605 77.8691 27.0249V61.8369C77.8691 62.2013 77.7243 62.5508 77.4667 62.8084C77.209 63.0661 76.8595 63.2109 76.4951 63.2109C76.1307 63.2109 75.7812 63.0661 75.5235 62.8084C75.2659 62.5508 75.1211 62.2013 75.1211 61.8369V27.0249C75.1211 26.6605 75.2659 26.311 75.5235 26.0533C75.7812 25.7956 76.1307 25.6509 76.4951 25.6509Z" fill="#242E3B"/>
</g>
<defs>
<clipPath id="clip0_183_1970">
<rect width="89.221" height="64.127" fill="white"/>
</clipPath>
</defs>
</svg>
