<svg width="91" height="101" viewBox="0 0 91 101" fill="none" xmlns="http://www.w3.org/2000/svg">
<g clip-path="url(#clip0_183_2311)">
<path d="M23.7968 64.6118L52.7973 14.4115L77.7975 28.8119C77.7975 28.8119 66.7961 50.4109 63.7943 53.0102C62.2193 54.4799 60.289 55.5143 58.1931 56.0118L58.1934 61.4113L53.7939 64.6113L52.7937 69.0118L50.5935 71.1767L50.5935 75.0126L45.7934 77.8127L23.7968 64.6118Z" fill="#10AF13"/>
<path d="M77.5294 20.3466L55.6579 7.71907C54.3689 6.97487 52.8371 6.7732 51.3994 7.15843C49.9617 7.54365 48.736 8.48422 47.9918 9.7732L38.7658 25.7531C38.4709 25.4466 38.1423 25.1744 37.7863 24.9416L37.5715 24.8176C36.6841 24.3105 35.6415 24.1463 34.6412 24.3561C33.6408 24.5658 32.752 25.135 32.1431 25.9559C30.9763 27.52 29.6925 28.9934 28.3029 30.3633C27.5194 31.0922 26.6871 31.7667 25.8117 32.3822C24.0945 33.4991 22.6177 34.9478 21.4682 36.6433C20.8309 37.6691 20.2324 38.8039 19.6551 39.8978C19.1173 40.9152 18.5627 41.9679 17.9913 42.9036C17.6045 43.5336 16.9794 44.4902 16.2766 45.5694C14.7411 47.923 12.8305 50.8544 12.1058 52.3574C10.8655 54.5613 10.4095 57.1208 10.8126 59.6175C10.8808 60.3913 10.9618 61.2971 10.9932 62.4526C11.0062 62.922 11.0331 63.3994 11.0626 63.8783C11.3579 65.6691 11.1461 67.5068 10.4512 69.1834L8.38121 72.7687C7.82306 73.7355 7.67181 74.8843 7.96073 75.9626C8.24965 77.0408 8.95507 77.9602 9.92181 78.5183L24.5031 86.9368C25.4698 87.495 26.6187 87.6462 27.6969 87.3573C28.7752 87.0684 29.6945 86.363 30.2527 85.3962L33.0592 80.5352C33.1913 80.3177 33.3784 80.1388 33.6016 80.0165C33.8248 79.8942 34.0763 79.8329 34.3308 79.8387C37.3944 79.9877 40.4544 79.4805 43.3061 78.3511L43.8569 78.6691C44.9363 79.2927 46.1929 79.5384 47.4277 79.3672C48.6624 79.196 49.8048 78.6177 50.6738 77.7239C50.7275 77.7549 50.7678 77.799 50.8215 77.83L52.0729 78.5525C52.9993 79.0947 54.0625 79.3584 55.1349 79.3119C56.2073 79.2654 57.2437 78.9108 58.1197 78.2904C58.9957 77.67 59.6744 76.8103 60.0743 75.8141C60.4742 74.8179 60.5784 73.7276 60.3745 72.6736C61.1866 72.6664 61.9872 72.4806 62.7195 72.1295C63.4519 71.7784 64.098 71.2705 64.6122 70.6419C65.1264 70.0133 65.4961 69.2793 65.6951 68.4919C65.8941 67.7045 65.9174 66.883 65.7636 66.0855C66.9906 66.0713 68.179 65.6545 69.1461 64.8991C70.1131 64.1437 70.8053 63.0915 71.1161 61.9044C71.4269 60.7173 71.3393 59.461 70.8665 58.3286C70.3938 57.1962 69.5622 56.2504 68.4996 55.6366L64.851 53.5301L66.143 51.2923L71.3769 51.9851C72.8512 52.2005 74.3508 51.8215 75.5457 50.9313C76.7405 50.0411 77.5329 48.7127 77.7483 47.2384C77.9638 45.764 77.5847 44.2644 76.6945 43.0695C75.8044 41.8747 74.476 41.0823 73.0016 40.8669L72.2244 40.753L79.5809 28.0112C80.3249 26.7227 80.5266 25.1914 80.1419 23.7542C79.7572 22.3169 78.8175 21.0912 77.5294 20.3466V20.3466ZM71.2662 19.9706L70.5662 21.1831C70.4743 21.3423 70.3519 21.4818 70.2061 21.5938C70.0602 21.7057 69.8937 21.7878 69.7162 21.8354C69.5386 21.883 69.3533 21.8951 69.1711 21.8711C68.9888 21.8471 68.813 21.7874 68.6538 21.6955L58.9309 16.082C58.6094 15.8964 58.3747 15.5906 58.2786 15.2319C58.1825 14.8733 58.2329 14.4911 58.4185 14.1696L59.1185 12.9571L71.2662 19.9706ZM34.3522 77.0336C33.6017 77.0239 32.8619 77.213 32.2081 77.5816C31.5542 77.9501 31.0094 78.4851 30.6291 79.1322L27.8231 83.9924C27.6375 84.3139 27.3317 84.5486 26.973 84.6447C26.6144 84.7408 26.2322 84.6904 25.9107 84.5048L11.3277 76.0853C11.0061 75.8996 10.7715 75.5939 10.6754 75.2352C10.5793 74.8766 10.6296 74.4944 10.8152 74.1729L12.8852 70.5875C13.8873 68.4476 14.2311 66.0583 13.873 63.7227C13.8466 63.2663 13.819 62.8162 13.8085 62.3783C13.7727 61.1544 13.6813 60.1987 13.6157 59.3803C13.2609 57.3881 13.6233 55.3346 14.6388 53.5843C15.288 52.2398 17.1437 49.3956 18.631 47.1135C19.3512 46.0062 19.9968 45.0279 20.3884 44.3776C21.0064 43.3673 21.5822 42.276 22.1402 41.2194C22.7211 40.1172 23.27 39.0785 23.8561 38.1374C24.8212 36.7417 26.055 35.5525 27.4853 34.6394C28.4623 33.9489 29.3908 33.1921 30.2641 32.3744C31.7562 30.901 33.1342 29.3165 34.3864 27.6345C34.5839 27.3615 34.875 27.1708 35.2041 27.0987C35.5333 27.0265 35.8774 27.0781 36.171 27.2434L36.3693 27.3579C36.8577 27.6906 37.2509 28.1449 37.5102 28.6759C37.5463 28.8357 37.6106 28.9878 37.7 29.125C38.1514 30.3913 38.1627 32.4116 36.3947 35.4739C36.3538 35.5278 36.3248 35.5897 36.3094 35.6556C34.4511 39.3563 28.5196 43.652 27.7361 43.605C27.4205 43.5829 27.1067 43.6689 26.8465 43.8488C26.5863 44.0288 26.395 44.292 26.3043 44.5951C26.2136 44.8982 26.2287 45.2232 26.3473 45.5166C26.4659 45.8099 26.6808 46.0542 26.9566 46.2091L19.9321 58.3759C19.5635 59.0142 19.3242 59.7188 19.2279 60.4495C19.1316 61.1803 19.1802 61.9228 19.3709 62.6348C19.5616 63.3468 19.8907 64.0142 20.3393 64.599C20.788 65.1837 21.3475 65.6744 21.9858 66.0429L40.0459 76.4699C38.1768 76.8825 36.2654 77.072 34.3517 77.0345L34.3522 77.0336ZM45.2599 76.239L23.3884 63.6115C22.744 63.2391 22.2738 62.626 22.0813 61.9071C21.8888 61.1881 21.9897 60.4221 22.3618 59.7775L30.6853 45.3608C33.9124 43.0782 36.6724 40.1986 38.8162 36.8777L38.8231 36.8817C40.9636 33.1743 41.0244 30.4231 40.4211 28.502L50.4211 11.1815C50.7932 10.537 51.4061 10.0668 52.1249 9.87415C52.8437 9.68153 53.6096 9.78237 54.2541 10.1545L56.6842 11.5575L55.9842 12.7699C55.4261 13.7366 55.2748 14.8855 55.5637 15.9638C55.8526 17.042 56.5581 17.9614 57.5248 18.5195L67.2442 24.131C68.211 24.6892 69.3598 24.8404 70.4381 24.5515C71.5163 24.2626 72.4357 23.5571 72.9938 22.5904L73.6938 21.378L76.1239 22.781C76.7679 23.1525 77.2382 23.7644 77.4314 24.4824C77.6246 25.2004 77.5249 25.9656 77.1543 26.6102L62.0328 52.8014C61.1423 52.7959 60.2634 53.0046 59.4705 53.4101C58.6776 53.8155 57.9938 54.4058 57.477 55.131C56.9601 55.8562 56.6252 56.6952 56.5007 57.577C56.3762 58.4588 56.4656 59.3576 56.7615 60.1976C55.975 60.3454 55.2296 60.6611 54.5762 61.1233C53.9229 61.5855 53.377 62.1832 52.9758 62.8756C52.5746 63.568 52.3275 64.3389 52.2515 65.1356C52.1755 65.9322 52.2722 66.7359 52.5352 67.4917C51.6686 67.6567 50.8538 68.0257 50.1583 68.5682C49.4627 69.1107 48.9064 69.8111 48.5354 70.6115C48.1644 71.4118 47.9894 72.289 48.0249 73.1704C48.0604 74.0518 48.3054 74.9121 48.7396 75.6799C48.3125 76.159 47.7333 76.4762 47.0996 76.5781C46.466 76.68 45.8165 76.5604 45.2607 76.2395L45.2599 76.239ZM58.8636 69.5127L56.4335 68.1097C56.1515 67.9487 55.9027 67.7357 55.7002 67.4819C55.3231 67.045 55.0922 66.5011 55.0397 65.9265C54.9872 65.3518 55.1157 64.7751 55.4073 64.2771C55.7793 63.6328 56.392 63.1626 57.1107 62.9699C57.8293 62.7772 58.595 62.8778 59.2395 63.2495L61.6696 64.6525C62.3141 65.0246 62.7844 65.6375 62.977 66.3564C63.1696 67.0752 63.0687 67.8411 62.6966 68.4856C62.3245 69.1301 61.7117 69.6004 60.9928 69.793C60.274 69.9856 59.5081 69.8848 58.8636 69.5127ZM53.4759 76.1224L52.2245 75.3999C51.58 75.0278 51.1097 74.4149 50.9171 73.6961C50.7245 72.9772 50.8253 72.2113 51.1974 71.5668C51.5695 70.9223 52.1824 70.452 52.9013 70.2594C53.6201 70.0668 54.386 70.1676 55.0305 70.5397L56.2819 71.2622C56.9264 71.6343 57.3967 72.2472 57.5893 72.9661C57.7819 73.6849 57.6811 74.4508 57.309 75.0953C56.9369 75.7398 56.324 76.2101 55.6052 76.4027C54.8863 76.5953 54.1204 76.4945 53.4759 76.1224ZM68.1212 61.896C67.749 62.5406 67.1361 63.011 66.4172 63.2038C65.6983 63.3965 64.9323 63.2959 64.2876 62.924L60.6425 60.8195C59.9979 60.4473 59.5275 59.8343 59.3349 59.1154C59.1422 58.3964 59.2431 57.6303 59.6153 56.9857C59.9874 56.3411 60.6004 55.8708 61.3194 55.6781C62.0384 55.4855 62.8044 55.5863 63.449 55.9585L67.0941 58.063C67.4134 58.2472 67.6932 58.4924 67.9177 58.7848C68.1421 59.0771 68.3068 59.4108 68.4022 59.7668C68.4977 60.1228 68.5221 60.4941 68.474 60.8596C68.4259 61.225 68.3063 61.5774 68.122 61.8965L68.1212 61.896ZM72.5928 43.6469C72.9577 43.7014 73.3083 43.8271 73.6246 44.017C73.9409 44.2069 74.2167 44.4573 74.4362 44.7537C74.6558 45.0502 74.8148 45.3871 74.9042 45.745C74.9935 46.1029 75.0115 46.475 74.9571 46.8399C74.9027 47.2048 74.777 47.5554 74.5871 47.8717C74.3971 48.188 74.1468 48.4637 73.8503 48.6833C73.5538 48.9028 73.217 49.0618 72.8591 49.1512C72.5011 49.2406 72.1291 49.2586 71.7642 49.2042L67.6576 48.6669L70.7151 43.3712L72.5928 43.6469Z" fill="#242E3B"/>
<path d="M41.99 68.8731L32.2697 63.2611C31.9475 63.075 31.5645 63.0246 31.2051 63.1209C30.8457 63.2172 30.5392 63.4524 30.3532 63.7746C30.1671 64.0969 30.1167 64.4798 30.213 64.8392C30.3093 65.1987 30.5445 65.5051 30.8667 65.6911L40.587 71.3031C40.9092 71.4892 41.2922 71.5396 41.6516 71.4433C42.011 71.347 42.3175 71.1119 42.5035 70.7896C42.6896 70.4674 42.74 70.0844 42.6437 69.725C42.5474 69.3656 42.3122 69.0591 41.99 68.8731Z" fill="#242E3B"/>
<path d="M21.5617 73.6302C21.2395 73.4442 20.8565 73.3938 20.4971 73.4901C20.1377 73.5864 19.8312 73.8215 19.6452 74.1438C19.4591 74.466 19.4087 74.849 19.505 75.2084C19.6013 75.5678 19.8365 75.8742 20.1587 76.0603L21.3712 76.7603C21.6934 76.9463 22.0763 76.9968 22.4358 76.9004C22.7952 76.8041 23.1016 76.569 23.2877 76.2468C23.4737 75.9245 23.5241 75.5416 23.4278 75.1821C23.3315 74.8227 23.0964 74.5163 22.7742 74.3302L21.5617 73.6302Z" fill="#242E3B"/>
<path d="M26.231 79.5676L29.8761 81.6721C30.1983 81.8582 30.5813 81.9086 30.9407 81.8123C31.3001 81.716 31.6066 81.4808 31.7926 81.1586C31.9787 80.8363 32.0291 80.4534 31.9328 80.0939C31.8365 79.7345 31.6013 79.4281 31.2791 79.242L27.634 77.1375C27.3117 76.9515 26.9288 76.9011 26.5694 76.9974C26.2099 77.0937 25.9035 77.3288 25.7174 77.6511C25.5314 77.9733 25.481 78.3563 25.5773 78.7157C25.6736 79.0751 25.9087 79.3816 26.231 79.5676Z" fill="#242E3B"/>
<path d="M52.9615 14.9253C52.6399 14.7397 52.2578 14.6894 51.8991 14.7855C51.5405 14.8816 51.2347 15.1162 51.049 15.4378L50.349 16.6502C50.163 16.9725 50.1126 17.3554 50.2089 17.7148C50.3052 18.0743 50.5403 18.3807 50.8626 18.5667C51.1848 18.7528 51.5678 18.8032 51.9272 18.7069C52.2866 18.6106 52.593 18.3755 52.7791 18.0532L53.4791 16.8408C53.6647 16.5192 53.7151 16.1371 53.619 15.7784C53.5229 15.4198 53.2882 15.114 52.9667 14.9283L52.9615 14.9253Z" fill="#242E3B"/>
<path d="M49.4527 21.0023C49.1311 20.8166 48.749 20.7663 48.3903 20.8624C48.0317 20.9585 47.7259 21.1931 47.5402 21.5147L44.0327 27.5899C43.8467 27.9121 43.7963 28.2951 43.8926 28.6545C43.9889 29.0139 44.224 29.3203 44.5463 29.5064C44.8685 29.6924 45.2515 29.7429 45.6109 29.6466C45.9703 29.5502 46.2767 29.3151 46.4628 28.9929L49.9703 22.9177C50.0625 22.758 50.1222 22.5817 50.1461 22.3989C50.17 22.2161 50.1575 22.0304 50.1094 21.8524C50.0613 21.6745 49.9785 21.5078 49.8658 21.3619C49.7531 21.216 49.6127 21.0938 49.4527 21.0023Z" fill="#242E3B"/>
</g>
<defs>
<clipPath id="clip0_183_2311">
<rect width="90.699" height="100.968" fill="white" transform="translate(0.197266)"/>
</clipPath>
</defs>
</svg>
