<svg width="81" height="65" viewBox="0 0 81 65" fill="none" xmlns="http://www.w3.org/2000/svg">
<g clip-path="url(#clip0_183_2004)">
<path d="M32.7668 51.9869C39.7962 59.0164 53.0927 57.1169 62.4653 47.7443C71.8378 38.3717 73.7373 25.0752 66.7079 18.0458C59.6785 11.0164 46.382 12.9159 37.0094 22.2884C27.6368 31.661 25.7373 44.9575 32.7668 51.9869Z" fill="#10AF13"/>
<path d="M79.9538 20.9929C79.1085 16.9307 77.3124 13.1268 74.7128 9.89289L74.6928 9.86889C74.4318 9.55193 74.0567 9.35038 73.6483 9.30777C73.24 9.26517 72.8313 9.38494 72.5105 9.6412C72.1898 9.89747 71.9827 10.2696 71.9341 10.6773C71.8855 11.085 71.9993 11.4954 72.2508 11.8199L72.2728 11.8469C74.5674 14.7021 76.1524 18.0606 76.8978 21.6469C77.6892 25.4827 77.6503 29.4434 76.7838 33.2629C74.956 41.1156 70.5451 48.1275 64.2578 53.1749C58.1529 58.354 50.4462 61.2649 42.4418 61.4149C38.677 61.4472 34.9499 60.6625 31.5178 59.1149C28.289 57.6517 25.4481 55.4522 23.2228 52.6929C20.9826 49.9047 19.4193 46.6351 18.6558 43.1409H21.8558C22.5657 45.9133 23.8615 48.5014 25.6558 50.7309C29.5828 55.6019 35.5448 58.2839 42.4418 58.2839C42.7538 58.2839 43.0658 58.2769 43.3778 58.2659C43.4526 58.2777 43.5281 58.284 43.6038 58.2849C43.7292 58.2846 43.8541 58.2692 43.9758 58.2389C50.7124 57.7396 57.1182 55.1213 62.2758 50.7589C68.0199 46.1588 72.0539 39.7641 73.7318 32.5989V32.5909V32.5739C75.2638 25.4839 73.8808 18.8179 69.8368 13.8029C65.9148 8.93888 59.9638 6.25689 53.0778 6.24989H53.0508C45.7704 6.39859 38.7648 9.05712 33.2188 13.7759C27.4755 18.3763 23.4422 24.771 21.7648 31.9359V31.9459V31.9599C21.1763 34.6028 21.0166 37.3232 21.2918 40.0169H18.1548C17.8849 37.0913 18.0728 34.1416 18.7118 31.2739C20.5395 23.4212 24.9505 16.4093 31.2378 11.3619C37.343 6.1838 45.0498 3.274 53.0538 3.12489C56.0378 3.10843 59.0033 3.59317 61.8268 4.55889C62.2155 4.68432 62.6379 4.65258 63.0035 4.47048C63.3692 4.28837 63.649 3.97036 63.7831 3.58453C63.9172 3.19869 63.8949 2.7757 63.7211 2.40608C63.5472 2.03646 63.2355 1.74959 62.8528 1.60689C59.6991 0.526351 56.3864 -0.0168688 53.0528 -0.000112139C44.8649 0.126083 36.9425 2.92443 30.4918 7.96889H11.0588C10.6444 7.96889 10.247 8.1335 9.95393 8.42653C9.6609 8.71956 9.49628 9.11698 9.49628 9.53139C9.49628 9.94579 9.6609 10.3432 9.95393 10.6362C10.247 10.9293 10.6444 11.0939 11.0588 11.0939H26.8378C21.2578 16.3483 17.3663 23.1432 15.6578 30.6149C14.973 33.7002 14.7572 36.8712 15.0178 40.0209H9.17578C8.76138 40.0209 8.36395 40.1855 8.07093 40.4785C7.7779 40.7716 7.61328 41.169 7.61328 41.5834C7.61328 41.9978 7.7779 42.3952 8.07093 42.6882C8.36395 42.9813 8.76138 43.1459 9.17578 43.1459H15.4648C15.4918 43.2799 15.5158 43.4139 15.5448 43.5459C16.3907 47.6131 18.1893 51.4217 20.7928 54.6589C23.3213 57.7952 26.5496 60.2954 30.2188 61.9589C34.0596 63.6927 38.2309 64.5726 42.4448 64.5379C51.1724 64.3887 59.5802 61.228 66.2448 55.5909C73.0768 50.0968 77.8661 42.4677 79.8448 33.9269C80.804 29.6728 80.8412 25.2626 79.9538 20.9929ZM24.5858 33.8299H26.3428C26.7503 33.8196 27.1377 33.6504 27.4223 33.3585C27.707 33.0666 27.8662 32.6751 27.8662 32.2674C27.8662 31.8597 27.707 31.4681 27.4223 31.1762C27.1377 30.8843 26.7503 30.7152 26.3428 30.7049H25.3088C27.0973 24.9923 30.5432 19.9401 35.2088 16.1899C39.7017 12.3867 45.2442 10.0383 51.1018 9.45589L50.8648 10.5319C50.8213 10.7324 50.8178 10.9395 50.8543 11.1414C50.8909 11.3433 50.9669 11.5361 51.078 11.7086C51.189 11.8811 51.333 12.0301 51.5016 12.147C51.6702 12.2639 51.8603 12.3464 52.0608 12.3899C52.2613 12.4334 52.4684 12.4369 52.6703 12.4003C52.8722 12.3637 53.0649 12.2878 53.2375 12.1767C53.41 12.0656 53.559 11.9217 53.6759 11.753C53.7928 11.5844 53.8753 11.3944 53.9188 11.1939L54.3058 9.41089C56.8155 9.47815 59.282 10.0797 61.5409 11.1753C63.7998 12.271 65.7992 13.8356 67.4058 15.7649C70.6188 19.7499 71.8438 25.0169 70.9058 30.7059H69.1488C68.9403 30.7006 68.7328 30.7371 68.5386 30.8133C68.3444 30.8894 68.1674 31.0037 68.0181 31.1493C67.8688 31.2949 67.7501 31.4689 67.669 31.6611C67.588 31.8533 67.5462 32.0598 67.5462 32.2684C67.5462 32.477 67.588 32.6834 67.669 32.8756C67.7501 33.0678 67.8688 33.2419 68.0181 33.3875C68.1674 33.5331 68.3444 33.6473 68.5386 33.7235C68.7328 33.7997 68.9403 33.8362 69.1488 33.8309H70.1838C68.3952 39.5434 64.9494 44.5956 60.2838 48.3459C56.0951 51.8748 51.0037 54.1632 45.5838 54.9529L45.7898 54.0049C45.8333 53.8044 45.8369 53.5972 45.8004 53.3953C45.7639 53.1934 45.6879 53.0006 45.5769 52.828C45.4659 52.6555 45.322 52.5064 45.1534 52.3895C44.9848 52.2725 44.7948 52.1899 44.5943 52.1464C44.3937 52.1029 44.1866 52.0993 43.9847 52.1358C43.7828 52.1723 43.59 52.2482 43.4174 52.3592C43.2449 52.4702 43.0958 52.6142 42.9789 52.7828C42.8619 52.9514 42.7793 53.1414 42.7358 53.3419L42.3408 55.1599C36.4488 55.1349 31.3898 52.8689 28.0858 48.7719C26.7432 47.1024 25.7317 45.1918 25.1058 43.1429H31.7708C32.1852 43.1429 32.5826 42.9783 32.8756 42.6852C33.1687 42.3922 33.3333 41.9948 33.3333 41.5804C33.3333 41.166 33.1687 40.7686 32.8756 40.4755C32.5826 40.1825 32.1852 40.0179 31.7708 40.0179H24.4378C24.1884 37.9589 24.2382 35.8746 24.5858 33.8299Z" fill="#242E3B"/>
<path d="M41.5229 38.9459C41.8845 38.9462 42.2349 38.8207 42.514 38.5909L48.74 33.4749C49.0118 33.2515 49.2003 32.9428 49.275 32.5989L52.4099 18.1499C52.4979 17.745 52.4213 17.3216 52.1971 16.9731C51.9729 16.6246 51.6194 16.3794 51.2144 16.2914C50.8095 16.2035 50.3861 16.2801 50.0376 16.5043C49.6891 16.7285 49.4439 17.0819 49.356 17.4869L46.336 31.4049L40.529 36.1759C40.2803 36.3805 40.1008 36.657 40.0152 36.9674C39.9296 37.2779 39.942 37.6072 40.0507 37.9104C40.1593 38.2135 40.359 38.4757 40.6224 38.6611C40.8857 38.8464 41.1999 38.9459 41.522 38.9459H41.5229Z" fill="#242E3B"/>
<path d="M2.15283 24.5488H12.8208C13.2352 24.5488 13.6327 24.3842 13.9257 24.0912C14.2187 23.7982 14.3833 23.4007 14.3833 22.9863C14.3833 22.5719 14.2187 22.1745 13.9257 21.8815C13.6327 21.5884 13.2352 21.4238 12.8208 21.4238H2.15283C1.73843 21.4238 1.341 21.5884 1.04798 21.8815C0.754952 22.1745 0.590332 22.5719 0.590332 22.9863C0.590332 23.4007 0.754952 23.7982 1.04798 24.0912C1.341 24.3842 1.73843 24.5488 2.15283 24.5488Z" fill="#242E3B"/>
<path d="M14.3987 54.239H6.26468C5.85712 54.2493 5.46972 54.4185 5.18511 54.7104C4.9005 55.0023 4.74121 55.3938 4.74121 55.8015C4.74121 56.2092 4.9005 56.6007 5.18511 56.8926C5.46972 57.1845 5.85712 57.3537 6.26468 57.364H14.3977C14.8052 57.3537 15.1926 57.1845 15.4772 56.8926C15.7619 56.6007 15.9211 56.2092 15.9211 55.8015C15.9211 55.3938 15.7619 55.0023 15.4772 54.7104C15.1926 54.4185 14.8052 54.2493 14.3977 54.239H14.3987Z" fill="#242E3B"/>
<path d="M3.59493 40.9818C3.46948 40.6958 3.26179 40.4536 2.99827 40.286C2.73476 40.1183 2.42733 40.0329 2.11511 40.0405C1.80289 40.0481 1.49999 40.1484 1.24496 40.3287C0.989925 40.509 0.794283 40.7611 0.682927 41.0528C0.57366 41.3567 0.561293 41.6869 0.647528 41.998C0.733763 42.3092 0.914358 42.5859 1.16443 42.7901C1.41451 42.9944 1.72176 43.116 2.04386 43.1384C2.36596 43.1607 2.68706 43.0826 2.96293 42.9148C3.27958 42.7192 3.51676 42.4177 3.63244 42.0639C3.74811 41.7101 3.73483 41.3268 3.59493 40.9818Z" fill="#242E3B"/>
<path d="M67.1799 6.92783C67.2982 7.21322 67.4984 7.45713 67.7553 7.62872C68.0122 7.80031 68.3143 7.89188 68.6232 7.89182C68.9321 7.89177 69.2341 7.80011 69.4909 7.62843C69.7478 7.45675 69.948 7.21276 70.0661 6.92732C70.1843 6.64189 70.2152 6.32781 70.1548 6.02483C70.0945 5.72184 69.9457 5.44354 69.7272 5.22513C69.5087 5.00672 69.2304 4.858 68.9274 4.79778C68.6244 4.73757 68.3103 4.76855 68.0249 4.88683C67.6448 5.04857 67.3434 5.353 67.1854 5.73466C67.0274 6.11632 67.0254 6.54474 67.1799 6.92783Z" fill="#242E3B"/>
</g>
<defs>
<clipPath id="clip0_183_2004">
<rect width="80" height="64.715" fill="white" transform="translate(0.59082)"/>
</clipPath>
</defs>
</svg>
