<svg width="81" height="80" viewBox="0 0 81 80" fill="none" xmlns="http://www.w3.org/2000/svg">
<g clip-path="url(#clip0_183_2091)">
<path d="M80.0269 76.5698H0.0268555V79.5698H80.0269V76.5698Z" fill="#242E3B"/>
<path d="M76.8068 11.3449L71.5018 0.734919C71.3448 0.420285 71.0694 0.180854 70.7359 0.0692754C70.4025 -0.0423027 70.0384 -0.0168922 69.7238 0.139919L59.1138 5.43992C58.7983 5.59666 58.558 5.87231 58.4457 6.20622C58.3335 6.54012 58.3585 6.90494 58.5153 7.22042C58.672 7.53589 58.9476 7.77618 59.2815 7.88842C59.6155 8.00066 59.9803 7.97566 60.2958 7.81892L67.9798 3.97992L65.8798 9.96592C61.3683 22.8152 53.2454 34.09 42.4856 42.4376C31.7258 50.7853 18.7861 55.8513 5.21875 57.0279L5.44375 59.6799C19.524 58.4613 32.9534 53.205 44.12 44.542C55.2866 35.879 63.7157 24.1775 68.3958 10.8419L70.5358 4.72592L74.4358 12.5259C74.5958 12.8359 74.8715 13.0704 75.2032 13.1787C75.5349 13.2869 75.8958 13.2602 76.2079 13.1042C76.52 12.9483 76.7582 12.6758 76.8708 12.3456C76.9834 12.0154 76.9615 11.6541 76.8098 11.3399L76.8068 11.3449Z" fill="#242E3B"/>
<path d="M26.3591 64.6589H21.5191C21.0581 64.6589 20.6851 64.8249 20.6851 65.0289V71.5289C20.6851 71.7289 21.0591 71.8989 21.5191 71.8989H26.3591C26.8201 71.8989 27.1931 71.7329 27.1931 71.5289V65.0289C27.1941 64.8249 26.8201 64.6589 26.3591 64.6589Z" fill="#10AF13"/>
<path d="M11.3591 68.4028H6.51907C6.05807 68.4028 5.68506 68.4928 5.68506 68.6028V71.7028C5.68506 71.8138 6.05907 71.9028 6.51907 71.9028H11.3591C11.8201 71.9028 12.1931 71.8128 12.1931 71.7028V68.6028C12.1941 68.4968 11.8201 68.4028 11.3591 68.4028Z" fill="#10AF13"/>
<path d="M15.9416 63.6589H6.65761C6.48323 63.6585 6.31048 63.6925 6.14925 63.759C5.98803 63.8255 5.8415 63.9231 5.71805 64.0462C5.5946 64.1694 5.49666 64.3157 5.42984 64.4768C5.36301 64.6379 5.32861 64.8105 5.32861 64.9849V72.9419C5.32861 73.1161 5.36291 73.2885 5.42955 73.4494C5.49619 73.6103 5.59386 73.7564 5.71699 73.8796C5.84012 74.0027 5.9863 74.1004 6.14717 74.167C6.30805 74.2336 6.48048 74.2679 6.65461 74.2679H15.9376C16.1117 74.2679 16.2842 74.2336 16.4451 74.167C16.6059 74.1004 16.7521 74.0027 16.8752 73.8796C16.9984 73.7564 17.096 73.6103 17.1627 73.4494C17.2293 73.2885 17.2636 73.1161 17.2636 72.9419V64.9849C17.2636 64.6339 17.1245 64.2973 16.8767 64.0487C16.6288 63.8002 16.2926 63.66 15.9416 63.6589ZM14.6156 71.6159H7.98361V66.3159H14.6146L14.6156 71.6159Z" fill="#242E3B"/>
<path d="M30.53 59.6799H21.247C21.0725 59.6794 20.8997 59.7133 20.7383 59.7797C20.577 59.8461 20.4303 59.9437 20.3068 60.0669C20.1832 60.1901 20.0852 60.3364 20.0183 60.4976C19.9514 60.6587 19.917 60.8315 19.917 61.0059V72.9419C19.917 73.2936 20.0567 73.6309 20.3054 73.8796C20.554 74.1282 20.8913 74.2679 21.243 74.2679H30.526C30.8777 74.2679 31.2149 74.1282 31.4636 73.8796C31.7123 73.6309 31.852 73.2936 31.852 72.9419V61.0059C31.852 60.6549 31.7128 60.3183 31.465 60.0697C31.2172 59.8211 30.881 59.681 30.53 59.6799ZM29.204 71.6159H22.573V62.3329H29.204V71.6159Z" fill="#242E3B"/>
<path d="M41.0627 57.5698H36.4816C36.381 57.5654 36.2804 57.5809 36.1857 57.6153C36.091 57.6497 36.0041 57.7025 35.9298 57.7706C35.8555 57.8386 35.7953 57.9207 35.7527 58.012C35.7102 58.1033 35.686 58.2022 35.6816 58.3028V72.1708C35.6907 72.374 35.7801 72.5652 35.9301 72.7024C36.0801 72.8397 36.2785 72.9118 36.4816 72.9028H41.0627C41.2658 72.9118 41.4642 72.8397 41.6142 72.7024C41.7642 72.5652 41.8536 72.374 41.8626 72.1708V58.3028C41.8583 58.2022 41.8341 58.1033 41.7915 58.012C41.749 57.9207 41.6888 57.8386 41.6145 57.7706C41.5402 57.7025 41.4532 57.6497 41.3586 57.6153C41.2639 57.5809 41.1633 57.5654 41.0627 57.5698Z" fill="#10AF13"/>
<path d="M45.1179 53.0488H35.8349C35.6604 53.0483 35.4876 53.0822 35.3262 53.1486C35.1649 53.215 35.0182 53.3126 34.8947 53.4358C34.7711 53.5589 34.6731 53.7053 34.6062 53.8665C34.5393 54.0276 34.5049 54.2004 34.5049 54.3748V72.9428C34.5049 73.2945 34.6446 73.6318 34.8933 73.8804C35.1419 74.1291 35.4792 74.2688 35.8309 74.2688H45.1139C45.4656 74.2688 45.8028 74.1291 46.0515 73.8804C46.3002 73.6318 46.4399 73.2945 46.4399 72.9428V54.3748C46.4399 54.0238 46.3007 53.6872 46.0529 53.4386C45.8051 53.19 45.4689 53.0499 45.1179 53.0488ZM43.7919 71.6158H37.1609V55.7008H43.7919V71.6158Z" fill="#242E3B"/>
<path d="M55.6176 48.2358H51.4256C51.0156 48.2358 50.6836 48.7788 50.6836 49.4478V73.0548C50.6836 73.7238 51.0156 74.2668 51.4256 74.2668H55.6176C56.0276 74.2668 56.3596 73.7238 56.3596 73.0548V49.4478C56.3596 48.7788 56.0276 48.2358 55.6176 48.2358Z" fill="#10AF13"/>
<path d="M59.7058 43.7659H50.4228C50.2483 43.7653 50.0754 43.7992 49.9141 43.8656C49.7528 43.932 49.6061 44.0296 49.4826 44.1528C49.359 44.276 49.261 44.4224 49.1941 44.5835C49.1272 44.7446 49.0928 44.9174 49.0928 45.0919V72.9419C49.0928 73.2935 49.2325 73.6308 49.4811 73.8795C49.7298 74.1282 50.0671 74.2679 50.4188 74.2679H59.7018C60.0535 74.2679 60.3907 74.1282 60.6394 73.8795C60.8881 73.6308 61.0278 73.2935 61.0278 72.9419V45.0919C61.0278 44.7409 60.8886 44.4042 60.6408 44.1556C60.393 43.9071 60.0568 43.7669 59.7058 43.7659ZM58.3798 71.6159H51.7488V46.4159H58.3798V71.6159Z" fill="#242E3B"/>
<path d="M69.7366 29.969H64.5646C64.0776 29.969 63.6826 30.517 63.6826 31.193V73.043C63.6826 73.719 64.0776 74.267 64.5646 74.267H69.7366C70.2236 74.267 70.6186 73.719 70.6186 73.043V31.193C70.6186 30.517 70.2236 29.969 69.7366 29.969Z" fill="#10AF13"/>
<path d="M74.2937 25.199H65.0107C64.8362 25.1985 64.6633 25.2324 64.502 25.2988C64.3406 25.3652 64.194 25.4628 64.0705 25.5859C63.9469 25.7091 63.8489 25.8555 63.782 26.0166C63.7151 26.1778 63.6807 26.3505 63.6807 26.525V72.942C63.6807 73.2937 63.8204 73.6309 64.069 73.8796C64.3177 74.1283 64.655 74.268 65.0067 74.268H74.2897C74.4638 74.268 74.6362 74.2337 74.7971 74.167C74.958 74.1004 75.1042 74.0027 75.2273 73.8796C75.3504 73.7565 75.4481 73.6103 75.5147 73.4494C75.5814 73.2885 75.6157 73.1161 75.6157 72.942V26.525C75.6157 26.174 75.4765 25.8373 75.2287 25.5888C74.9809 25.3402 74.6447 25.2 74.2937 25.199ZM72.9677 71.616H66.3367V27.851H72.9677V71.616Z" fill="#242E3B"/>
</g>
<defs>
<clipPath id="clip0_183_2091">
<rect width="80" height="79.569" fill="white" transform="translate(0.0268555)"/>
</clipPath>
</defs>
</svg>
