<svg width="72" height="92" viewBox="0 0 72 92" fill="none" xmlns="http://www.w3.org/2000/svg">
<g clip-path="url(#clip0_183_2194)">
<path d="M51.9922 7H14.9922V84H51.9922V7Z" fill="#10AF13"/>
<path d="M22.9922 52H2.99219V70H22.9922V52Z" fill="white"/>
<path d="M12.8302 51.4319H18.8302C18.8302 51.4319 19.7301 45.8069 15.9801 45.8069C12.2301 45.8069 12.8302 51.4319 12.8302 51.4319Z" fill="white"/>
<path d="M26.1372 82.833H15.7832C15.3909 82.833 15.0147 82.9888 14.7374 83.2662C14.46 83.5436 14.3042 83.9198 14.3042 84.312C14.3042 84.7043 14.46 85.0805 14.7374 85.3578C15.0147 85.6352 15.3909 85.791 15.7832 85.791H26.1372C26.5294 85.791 26.9056 85.6352 27.183 85.3578C27.4604 85.0805 27.6162 84.7043 27.6162 84.312C27.6162 83.9198 27.4604 83.5436 27.183 83.2662C26.9056 82.9888 26.5294 82.833 26.1372 82.833Z" fill="#242E3B"/>
<path d="M31.8691 82.833H30.3901C29.9979 82.833 29.6217 82.9888 29.3443 83.2662C29.0669 83.5436 28.9111 83.9198 28.9111 84.312C28.9111 84.7043 29.0669 85.0805 29.3443 85.3578C29.6217 85.6352 29.9979 85.791 30.3901 85.791H31.8691C32.2614 85.791 32.6376 85.6352 32.9149 85.3578C33.1923 85.0805 33.3481 84.7043 33.3481 84.312C33.3481 83.9198 33.1923 83.5436 32.9149 83.2662C32.6376 82.9888 32.2614 82.833 31.8691 82.833Z" fill="#242E3B"/>
<path d="M40.8491 43.572V58H43.8491V63.428L50.4214 58H70.1353V43.572H40.8491Z" fill="white"/>
<path d="M29.1353 17.572V32H26.1353V37.428L19.563 32H1.84912V17.572H29.1353Z" fill="white"/>
<path d="M70.5132 41.417H58.6802V7.4C58.6802 5.4374 57.9005 3.55518 56.5128 2.16741C55.125 0.779641 53.2428 0 51.2802 0H15.7802C13.8176 0 11.9354 0.779641 10.5476 2.16741C9.15983 3.55518 8.38019 5.4374 8.38019 7.4V16.275H2.47118C2.07962 16.275 1.70404 16.4303 1.42679 16.7068C1.14954 16.9833 0.993247 17.3584 0.992188 17.75V32.542C0.992188 32.9343 1.14801 33.3104 1.42538 33.5878C1.70274 33.8652 2.07893 34.021 2.47118 34.021H8.39219V44.63C7.5278 44.9365 6.77946 45.5031 6.24985 46.2518C5.72024 47.0006 5.43532 47.8949 5.43419 48.812V50.291H2.47118C2.27687 50.291 2.08447 50.3293 1.90497 50.4037C1.72546 50.4781 1.56238 50.5871 1.42503 50.7245C1.28768 50.862 1.17875 51.0251 1.10448 51.2047C1.03022 51.3843 0.992056 51.5767 0.992188 51.771V69.521C0.992188 69.9133 1.14801 70.2894 1.42538 70.5668C1.70274 70.8442 2.07893 71 2.47118 71H8.39219V84.312C8.39219 86.2746 9.17183 88.1568 10.5596 89.5446C11.9474 90.9324 13.8296 91.712 15.7922 91.712H51.2922C53.2548 91.712 55.137 90.9324 56.5248 89.5446C57.9125 88.1568 58.6922 86.2746 58.6922 84.312V59.167H70.5252C70.9155 59.1638 71.2888 59.0065 71.5636 58.7292C71.8384 58.452 71.9925 58.0774 71.9922 57.687V42.9C71.9927 42.7054 71.9548 42.5127 71.8808 42.3328C71.8067 42.1529 71.6978 41.9894 71.5604 41.8516C71.423 41.7138 71.2598 41.6045 71.0801 41.53C70.9004 41.4554 70.7077 41.417 70.5132 41.417ZM40.5132 2.959L39.7732 5.917H27.2922L26.5522 2.959H40.5132ZM3.95019 31.059V19.229H27.6172V31.062H26.1382C25.7459 31.062 25.3697 31.2178 25.0924 31.4952C24.815 31.7726 24.6592 32.1487 24.6592 32.541V34.963L21.0662 31.48C20.7904 31.2119 20.4209 31.0619 20.0362 31.062L3.95019 31.059ZM8.39219 48.812C8.39219 48.4197 8.54801 48.0436 8.82538 47.7662C9.10275 47.4888 9.47893 47.333 9.87119 47.333C10.2634 47.333 10.6396 47.4888 10.917 47.7662C11.1944 48.0436 11.3502 48.4197 11.3502 48.812V50.291H8.39219V48.812ZM3.95019 68.042V53.25H5.42918V54.729C5.42918 55.1213 5.58501 55.4974 5.86237 55.7748C6.13974 56.0522 6.51593 56.208 6.90819 56.208C7.30044 56.208 7.67663 56.0522 7.954 55.7748C8.23136 55.4974 8.38718 55.1213 8.38718 54.729V53.25H11.3452V54.729C11.3452 55.1213 11.501 55.4974 11.7784 55.7748C12.0557 56.0522 12.4319 56.208 12.8242 56.208C13.2164 56.208 13.5926 56.0522 13.87 55.7748C14.1474 55.4974 14.3032 55.1213 14.3032 54.729V53.25H15.7822V68.042H3.95019ZM14.3042 50.292V48.812C14.3042 48.4197 14.46 48.0436 14.7374 47.7662C15.0147 47.4888 15.3909 47.333 15.7832 47.333C16.1754 47.333 16.5516 47.4888 16.829 47.7662C17.1064 48.0436 17.2622 48.4197 17.2622 48.812V50.291L14.3042 50.292ZM55.7212 84.313C55.7199 85.4895 55.252 86.6174 54.4202 87.4493C53.5884 88.2813 52.4606 88.7494 51.2842 88.751H15.7842C14.6079 88.7494 13.4803 88.2814 12.6485 87.4497C11.8168 86.6179 11.3488 85.4903 11.3472 84.314V71H23.1802C23.5724 71 23.9486 70.8442 24.226 70.5668C24.5034 70.2894 24.6592 69.9133 24.6592 69.521V51.771C24.6592 51.3787 24.5034 51.0026 24.226 50.7252C23.9486 50.4478 23.5724 50.292 23.1802 50.292H20.2212V48.812C20.2215 47.9548 19.9734 47.1158 19.5069 46.3966C19.0404 45.6774 18.3754 45.1088 17.5925 44.7597C16.8096 44.4105 15.9422 44.2958 15.0954 44.4293C14.2486 44.5628 13.4587 44.9389 12.8212 45.512C12.3905 45.1253 11.8879 44.827 11.3422 44.634V34.021H19.4332L25.1042 39.521C25.3799 39.7893 25.7495 39.9393 26.1342 39.939C26.3323 39.9388 26.5284 39.8994 26.7112 39.823C26.9785 39.7093 27.2064 39.5194 27.3664 39.277C27.5265 39.0346 27.6116 38.7505 27.6112 38.46V34.021H29.0922C29.4844 34.021 29.8606 33.8652 30.138 33.5878C30.4154 33.3104 30.5712 32.9343 30.5712 32.542V17.75C30.5712 17.3577 30.4154 16.9816 30.138 16.7042C29.8606 16.4268 29.4844 16.271 29.0922 16.271H11.3462V7.4C11.3478 6.22355 11.8159 5.09575 12.6479 4.26397C13.4798 3.43218 14.6077 2.96432 15.7842 2.963H23.5032L24.7032 7.763C24.7832 8.08296 24.968 8.36699 25.228 8.56992C25.488 8.77285 25.8084 8.88305 26.1382 8.883H40.9302C41.26 8.88305 41.5804 8.77285 41.8404 8.56992C42.1004 8.36699 42.2851 8.08296 42.3652 7.763L43.5652 2.963H51.2842C52.4608 2.96432 53.5889 3.43232 54.4209 4.26432C55.2529 5.09632 55.7209 6.22438 55.7222 7.401V41.417H40.9302C40.5379 41.417 40.1617 41.5728 39.8844 41.8502C39.607 42.1276 39.4512 42.5037 39.4512 42.896V57.687C39.4512 58.0793 39.607 58.4554 39.8844 58.7328C40.1617 59.0102 40.5379 59.166 40.9302 59.166H42.4092V63.6C42.4088 63.8905 42.4939 64.1746 42.654 64.417C42.814 64.6594 43.0419 64.8493 43.3092 64.963C43.492 65.0394 43.6881 65.0788 43.8862 65.079C44.2709 65.0792 44.6404 64.9292 44.9162 64.661L50.5872 59.161H55.7202L55.7212 84.313ZM18.7422 68.042V53.25H21.7002V68.042H18.7422ZM69.0342 56.209H49.9922C49.6075 56.2089 49.238 56.3589 48.9622 56.627L45.3692 60.11V57.687C45.3692 57.2947 45.2134 56.9186 44.936 56.6412C44.6586 56.3638 44.2824 56.208 43.8902 56.208H42.4112V44.375H69.0362L69.0342 56.209Z" fill="#242E3B"/>
<path d="M15.4922 27C16.3206 27 16.9922 26.3284 16.9922 25.5C16.9922 24.6716 16.3206 24 15.4922 24C14.6638 24 13.9922 24.6716 13.9922 25.5C13.9922 26.3284 14.6638 27 15.4922 27Z" fill="#242E3B"/>
<path d="M11.4922 27C12.3206 27 12.9922 26.3284 12.9922 25.5C12.9922 24.6716 12.3206 24 11.4922 24C10.6638 24 9.99219 24.6716 9.99219 25.5C9.99219 26.3284 10.6638 27 11.4922 27Z" fill="#242E3B"/>
<path d="M20.4922 27C21.3206 27 21.9922 26.3284 21.9922 25.5C21.9922 24.6716 21.3206 24 20.4922 24C19.6638 24 18.9922 24.6716 18.9922 25.5C18.9922 26.3284 19.6638 27 20.4922 27Z" fill="#242E3B"/>
<path d="M55.4922 52C56.3206 52 56.9922 51.3284 56.9922 50.5C56.9922 49.6716 56.3206 49 55.4922 49C54.6638 49 53.9922 49.6716 53.9922 50.5C53.9922 51.3284 54.6638 52 55.4922 52Z" fill="#242E3B"/>
<path d="M51.4922 52C52.3206 52 52.9922 51.3284 52.9922 50.5C52.9922 49.6716 52.3206 49 51.4922 49C50.6638 49 49.9922 49.6716 49.9922 50.5C49.9922 51.3284 50.6638 52 51.4922 52Z" fill="#242E3B"/>
<path d="M60.4922 52C61.3206 52 61.9922 51.3284 61.9922 50.5C61.9922 49.6716 61.3206 49 60.4922 49C59.6638 49 58.9922 49.6716 58.9922 50.5C58.9922 51.3284 59.6638 52 60.4922 52Z" fill="#242E3B"/>
</g>
<defs>
<clipPath id="clip0_183_2194">
<rect width="71" height="91.708" fill="white" transform="translate(0.992188)"/>
</clipPath>
</defs>
</svg>
