<svg width="81" height="78" viewBox="0 0 81 78" fill="none" xmlns="http://www.w3.org/2000/svg">
<g clip-path="url(#clip0_183_2024)">
<path fill-rule="evenodd" clip-rule="evenodd" d="M73.6938 55.172C73.6938 54.9909 73.6582 54.8116 73.5889 54.6442C73.5196 54.4769 73.418 54.3249 73.2899 54.1969C73.1619 54.0688 73.0098 53.9672 72.8425 53.8979C72.6752 53.8286 72.4959 53.793 72.3148 53.793H50.2458C49.8801 53.793 49.5294 53.9383 49.2708 54.1969C49.0121 54.4555 48.8668 54.8062 48.8668 55.172V60.693C48.8668 61.0588 49.0122 61.4097 49.2709 61.6684C49.5296 61.9271 49.8805 62.0725 50.2463 62.0725C50.6122 62.0725 50.9631 61.9271 51.2218 61.6684C51.4805 61.4097 51.6259 61.0588 51.6259 60.693V56.552H70.9358V60.693C70.9358 61.0588 71.0811 61.4097 71.3398 61.6684C71.5986 61.9271 71.9494 62.0725 72.3153 62.0725C72.6812 62.0725 73.0321 61.9271 73.2908 61.6684C73.5495 61.4097 73.6948 61.0588 73.6948 60.693L73.6938 55.172Z" fill="#242E3B"/>
<path fill-rule="evenodd" clip-rule="evenodd" d="M62.6587 46.8961C62.6587 46.5302 62.5133 46.1794 62.2546 45.9206C61.9959 45.6619 61.645 45.5166 61.2792 45.5166C60.9133 45.5166 60.5624 45.6619 60.3037 45.9206C60.045 46.1794 59.8997 46.5302 59.8997 46.8961V55.1721C59.8997 55.5378 60.045 55.8886 60.3036 56.1472C60.5622 56.4058 60.913 56.5511 61.2787 56.5511C61.6444 56.5511 61.9952 56.4058 62.2538 56.1472C62.5124 55.8886 62.6577 55.5378 62.6577 55.1721L62.6587 46.8961ZM32.3137 55.1721C32.3137 54.8064 32.1684 54.4556 31.9098 54.197C31.6512 53.9384 31.3004 53.7931 30.9347 53.7931H8.86572C8.68455 53.793 8.50507 53.8285 8.33765 53.8978C8.17022 53.967 8.01805 54.0686 7.88989 54.1966C7.76173 54.3247 7.66006 54.4768 7.5907 54.6441C7.52134 54.8115 7.48572 54.9909 7.48572 55.1721V60.6891C7.48572 61.055 7.63107 61.4058 7.88977 61.6646C8.14848 61.9233 8.49937 62.0686 8.86523 62.0686C9.2311 62.0686 9.58187 61.9233 9.84058 61.6646C10.0993 61.4058 10.2446 61.055 10.2446 60.6891V56.5511H29.5547V60.6891C29.5547 61.055 29.7 61.4058 29.9587 61.6646C30.2174 61.9233 30.5683 62.0686 30.9342 62.0686C31.3001 62.0686 31.651 61.9233 31.9097 61.6646C32.1684 61.4058 32.3137 61.055 32.3137 60.6891V55.1721Z" fill="#242E3B"/>
<path fill-rule="evenodd" clip-rule="evenodd" d="M21.2797 46.896C21.2797 46.5301 21.1343 46.1793 20.8756 45.9206C20.6169 45.6618 20.266 45.5165 19.9001 45.5165C19.5343 45.5165 19.1834 45.6618 18.9247 45.9206C18.666 46.1793 18.5206 46.5301 18.5206 46.896V55.172C18.5206 55.5379 18.666 55.8888 18.9247 56.1475C19.1834 56.4062 19.5343 56.5515 19.9001 56.5515C20.266 56.5515 20.6169 56.4062 20.8756 56.1475C21.1343 55.8888 21.2797 55.5379 21.2797 55.172V46.896ZM62.6587 24.806C62.6584 24.4404 62.5131 24.0898 62.2545 23.8312C61.996 23.5726 61.6453 23.4273 61.2797 23.427L19.9006 23.427C19.7194 23.4266 19.5399 23.462 19.3723 23.531C19.2047 23.6001 19.0523 23.7015 18.924 23.8295C18.7956 23.9575 18.6938 24.1095 18.6243 24.2769C18.5547 24.4443 18.5188 24.6237 18.5187 24.805V30.322C18.5187 30.6879 18.664 31.0388 18.9227 31.2975C19.1814 31.5562 19.5323 31.7015 19.8982 31.7015C20.2641 31.7015 20.615 31.5562 20.8737 31.2975C21.1324 31.0388 21.2777 30.6879 21.2777 30.322V26.185L59.8977 26.185V30.323C59.8977 30.6887 60.043 31.0395 60.3016 31.2981C60.5602 31.5567 60.911 31.702 61.2767 31.702C61.6425 31.702 61.9932 31.5567 62.2518 31.2981C62.5104 31.0395 62.6556 30.6887 62.6556 30.323L62.6587 24.806Z" fill="#242E3B"/>
<path fill-rule="evenodd" clip-rule="evenodd" d="M41.9697 16.5301C41.96 16.1707 41.8105 15.8292 41.5529 15.5784C41.2952 15.3276 40.9498 15.1873 40.5902 15.1873C40.2306 15.1873 39.8853 15.3276 39.6277 15.5784C39.37 15.8292 39.2204 16.1707 39.2107 16.5301V24.8061C39.2107 25.1718 39.356 25.5226 39.6146 25.7812C39.8732 26.0398 40.224 26.1851 40.5897 26.1851C40.9555 26.1851 41.3062 26.0398 41.5648 25.7812C41.8234 25.5226 41.9688 25.1718 41.9688 24.8061L41.9697 16.5301Z" fill="#242E3B"/>
<path d="M44.5908 14.927V5.927C44.5908 5.37472 44.1431 4.927 43.5908 4.927L33.5908 4.927C33.0385 4.927 32.5908 5.37472 32.5908 5.927V14.927C32.5908 15.4793 33.0385 15.927 33.5908 15.927H43.5908C44.1431 15.927 44.5908 15.4793 44.5908 14.927Z" fill="#10AF13"/>
<path d="M65.5908 35.927V44.927C65.5908 45.1922 65.4855 45.4466 65.2979 45.6341C65.1104 45.8216 64.856 45.927 64.5908 45.927H54.5908C54.3256 45.927 54.0712 45.8216 53.8837 45.6341C53.6962 45.4466 53.5908 45.1922 53.5908 44.927V35.927C53.5908 35.6618 53.6962 35.4074 53.8837 35.2199C54.0712 35.0324 54.3256 34.927 54.5908 34.927H64.5908C64.856 34.927 65.1104 35.0324 65.2979 35.2199C65.4855 35.4074 65.5908 35.6618 65.5908 35.927V35.927Z" fill="#10AF13"/>
<path d="M23.5908 35.927V44.927C23.5908 45.1922 23.4855 45.4466 23.2979 45.6341C23.1104 45.8216 22.856 45.927 22.5908 45.927H12.5908C12.3256 45.927 12.0712 45.8216 11.8837 45.6341C11.6962 45.4466 11.5908 45.1922 11.5908 44.927V35.927C11.5908 35.6618 11.6962 35.4074 11.8837 35.2199C12.0712 35.0324 12.3256 34.927 12.5908 34.927H22.5908C22.856 34.927 23.1104 35.0324 23.2979 35.2199C23.4855 35.4074 23.5908 35.6618 23.5908 35.927V35.927Z" fill="#10AF13"/>
<path d="M12.5908 65.927V74.927C12.5908 75.1922 12.4855 75.4466 12.2979 75.6341C12.1104 75.8216 11.856 75.927 11.5908 75.927H1.59082C1.3256 75.927 1.07125 75.8216 0.883714 75.6341C0.696177 75.4466 0.59082 75.1922 0.59082 74.927V65.927C0.59082 65.6618 0.696177 65.4074 0.883714 65.2199C1.07125 65.0324 1.3256 64.927 1.59082 64.927H11.5908C11.856 64.927 12.1104 65.0324 12.2979 65.2199C12.4855 65.4074 12.5908 65.6618 12.5908 65.927V65.927Z" fill="#10AF13"/>
<path d="M34.5908 65.927V74.927C34.5908 75.1922 34.4855 75.4466 34.2979 75.6341C34.1104 75.8216 33.856 75.927 33.5908 75.927H23.5908C23.3256 75.927 23.0712 75.8216 22.8837 75.6341C22.6962 75.4466 22.5908 75.1922 22.5908 74.927V65.927C22.5908 65.6618 22.6962 65.4074 22.8837 65.2199C23.0712 65.0324 23.3256 64.927 23.5908 64.927H33.5908C33.856 64.927 34.1104 65.0324 34.2979 65.2199C34.4855 65.4074 34.5908 65.6618 34.5908 65.927V65.927Z" fill="#10AF13"/>
<path d="M54.5908 65.927V74.927C54.5908 75.1922 54.4855 75.4466 54.2979 75.6341C54.1104 75.8216 53.856 75.927 53.5908 75.927H43.5908C43.3256 75.927 43.0712 75.8216 42.8837 75.6341C42.6962 75.4466 42.5908 75.1922 42.5908 74.927V65.927C42.5908 65.6618 42.6962 65.4074 42.8837 65.2199C43.0712 65.0324 43.3256 64.927 43.5908 64.927H53.5908C53.856 64.927 54.1104 65.0324 54.2979 65.2199C54.4855 65.4074 54.5908 65.6618 54.5908 65.927V65.927Z" fill="#10AF13"/>
<path d="M76.5908 65.927V74.927C76.5908 75.1922 76.4855 75.4466 76.2979 75.6341C76.1104 75.8216 75.856 75.927 75.5908 75.927H65.5908C65.3256 75.927 65.0712 75.8216 64.8837 75.6341C64.6962 75.4466 64.5908 75.1922 64.5908 74.927V65.927C64.5908 65.6618 64.6962 65.4074 64.8837 65.2199C65.0712 65.0324 65.3256 64.927 65.5908 64.927H75.5908C75.856 64.927 76.1104 65.0324 76.2979 65.2199C76.4855 65.4074 76.5908 65.6618 76.5908 65.927V65.927Z" fill="#10AF13"/>
<path d="M48.8659 1.379C48.8656 1.01335 48.7203 0.662748 48.4617 0.404193C48.2032 0.145638 47.8525 0.000265232 47.4869 3.62615e-07L33.6939 3.62615e-07C33.5127 -0.00013102 33.3333 0.0354409 33.1658 0.104683C32.9984 0.173926 32.8464 0.275481 32.7182 0.403546C32.59 0.531611 32.4884 0.683676 32.419 0.851049C32.3496 1.01842 32.3139 1.19782 32.3139 1.379V15.172C32.3139 15.3532 32.3496 15.5326 32.419 15.7C32.4884 15.8673 32.59 16.0194 32.7182 16.1475C32.8464 16.2755 32.9984 16.3771 33.1658 16.4463C33.3333 16.5156 33.5127 16.5511 33.6939 16.551H47.4869C47.8526 16.551 48.2034 16.4057 48.462 16.1471C48.7206 15.8885 48.8659 15.5377 48.8659 15.172V1.379ZM46.1078 2.758V13.793L35.0729 13.793V2.759L46.1078 2.758ZM69.5558 31.723C69.5556 31.3573 69.4102 31.0067 69.1517 30.7482C68.8931 30.4896 68.5426 30.3443 68.1769 30.344H54.3839C54.0181 30.344 53.6674 30.4893 53.4088 30.7479C53.1501 31.0065 53.0049 31.3573 53.0049 31.723V45.517C53.0049 45.8827 53.1501 46.2335 53.4088 46.4921C53.6674 46.7507 54.0181 46.896 54.3839 46.896H68.1769C68.5427 46.896 68.8934 46.7507 69.152 46.4921C69.4107 46.2335 69.5558 45.8827 69.5558 45.517V31.723ZM66.7969 33.102V44.138H55.7629V33.1L66.7969 33.102ZM28.1769 31.723C28.1769 31.5418 28.1412 31.3624 28.0718 31.195C28.0025 31.0277 27.9008 30.8756 27.7726 30.7475C27.6445 30.6195 27.4923 30.5179 27.3249 30.4487C27.1575 30.3794 26.9781 30.3439 26.7969 30.344H13.0038C12.6381 30.344 12.2874 30.4893 12.0287 30.7479C11.7701 31.0065 11.6249 31.3573 11.6249 31.723V45.517C11.6252 45.8827 11.7706 46.2332 12.0291 46.4918C12.2877 46.7504 12.6382 46.8957 13.0038 46.896L26.7969 46.896C26.9781 46.8961 27.1575 46.8606 27.3249 46.7913C27.4923 46.7221 27.6445 46.6205 27.7726 46.4925C27.9008 46.3644 28.0025 46.2123 28.0718 46.045C28.1412 45.8776 28.1769 45.6982 28.1769 45.517V31.723ZM25.4179 33.102V44.138L14.3839 44.138V33.1L25.4179 33.102ZM58.5179 62.067C58.5179 61.7013 58.3726 61.3505 58.114 61.0919C57.8553 60.8333 57.5046 60.688 57.1389 60.688H43.3499C42.9842 60.688 42.6334 60.8333 42.3748 61.0919C42.1162 61.3505 41.9709 61.7013 41.9709 62.067V75.861C41.9709 76.2267 42.1162 76.5775 42.3748 76.8361C42.6334 77.0947 42.9842 77.24 43.3499 77.24H57.1429C57.324 77.24 57.5033 77.2043 57.6706 77.135C57.8379 77.0657 57.9899 76.9641 58.118 76.8361C58.246 76.708 58.3476 76.556 58.4169 76.3887C58.4862 76.2214 58.5219 76.0421 58.5219 75.861L58.5179 62.067ZM55.7599 63.446V74.482H44.7259V63.448L55.7599 63.446ZM80.5869 62.067C80.5869 61.7013 80.4416 61.3505 80.183 61.0919C79.9244 60.8333 79.5736 60.688 79.2079 60.688H65.4149C65.0491 60.688 64.6984 60.8333 64.4398 61.0919C64.1811 61.3505 64.0359 61.7013 64.0359 62.067V75.861C64.0362 76.2268 64.1817 76.5776 64.4405 76.8362C64.6993 77.0947 65.05 77.24 65.4158 77.24H79.2089C79.5745 77.2397 79.9252 77.0944 80.1837 76.8358C80.4423 76.5773 80.5876 76.2267 80.5879 75.861L80.5869 62.067ZM77.8279 63.446V74.482H66.7939V63.448L77.8279 63.446ZM17.1389 62.067C17.1389 61.7013 16.9937 61.3505 16.735 61.0919C16.4764 60.8333 16.1257 60.688 15.7599 60.688H1.96686C1.78568 60.6879 1.60633 60.7234 1.4389 60.7927C1.27148 60.8619 1.11931 60.9635 0.99115 61.0915C0.862991 61.2196 0.761322 61.3717 0.691956 61.539C0.622589 61.7064 0.586853 61.8858 0.586853 62.067V75.861C0.586853 76.0422 0.622589 76.2216 0.691956 76.389C0.761322 76.5563 0.862991 76.7084 0.99115 76.8365C1.11931 76.9645 1.27148 77.0661 1.4389 77.1353C1.60633 77.2046 1.78568 77.2401 1.96686 77.24H15.7599C16.1257 77.24 16.4764 77.0947 16.735 76.8361C16.9937 76.5775 17.1389 76.2267 17.1389 75.861V62.067ZM14.3809 63.446V74.482H3.34991V63.448L14.3809 63.446ZM39.2079 62.067C39.2079 61.7013 39.0626 61.3505 38.804 61.0919C38.5454 60.8333 38.1947 60.688 37.8289 60.688H24.0359C23.6702 60.688 23.3193 60.8333 23.0607 61.0919C22.8021 61.3505 22.6569 61.7013 22.6569 62.067V75.861C22.6569 76.0421 22.6926 76.2214 22.7619 76.3887C22.8312 76.556 22.9327 76.708 23.0607 76.8361C23.1888 76.9641 23.3408 77.0657 23.5081 77.135C23.6754 77.2043 23.8549 77.24 24.0359 77.24H37.8289C38.01 77.24 38.1893 77.2043 38.3566 77.135C38.5239 77.0657 38.676 76.9641 38.804 76.8361C38.9321 76.708 39.0337 76.556 39.103 76.3887C39.1723 76.2214 39.2079 76.0421 39.2079 75.861V62.067ZM36.4499 63.446V74.482H25.4158V63.448L36.4499 63.446Z" fill="#242E3B"/>
</g>
<defs>
<clipPath id="clip0_183_2024">
<rect width="79.999" height="77.241" fill="white" transform="translate(0.59082)"/>
</clipPath>
</defs>
</svg>
