<svg width="66" height="66" viewBox="0 0 66 66" fill="none" xmlns="http://www.w3.org/2000/svg">
<g clip-path="url(#clip0_183_2362)">
<path d="M58.6426 50.9971L56.3096 47.397L55.7095 43.5642L53.4717 38.7312L51.8047 30.8501L48.1377 28.4221L44.1377 29.136L36.4233 26.136L35.3047 22.3982L38.4717 19.2312H45.3047L47.1377 22.3982L53.4707 23.8982L61.7085 20.8501C61.7085 20.8501 65.3755 24.9932 64.7085 36.9932C64.0415 48.9932 59.0296 48.0911 58.6426 50.9971Z" fill="#10AF13"/>
<path d="M46.8086 4.23608L42.4756 6.56908H38.1426L36.1426 10.7361L39.4756 12.0691L43.9756 10.7361L48.9756 12.7361H52.4756L56.1426 10.7361L46.8086 4.23608Z" fill="#10AF13"/>
<path d="M20.5716 6.71191L25.3096 8.73591H30.5716L28.7136 10.5689L25.3086 11.9999L22.8086 16.5709L18.4276 19.2379L9.99959 20.9999L10.8096 26.8999L11.8096 32.2809L12.6426 33.2339L6.57159 26.8999L4.30859 23.5689C6.17491 19.6068 8.71229 15.9973 11.8086 12.8999C14.4164 10.4261 17.3679 8.34194 20.5716 6.71191Z" fill="#10AF13"/>
<path d="M9.30859 36.7849L11.3086 40.1409L17.8566 41.2409V52.7119L18.8086 55.7119L20.2856 57.7119L22.8566 58.5689V53.8999L26.9756 50.7099L27.7136 46.8529L31.1426 43.7119V41.2359H26.9756L23.9756 35.5689H16.6426L14.3086 31.3999L9.30859 36.7849Z" fill="#10AF13"/>
<path d="M32.9421 2.46325e-08C26.5237 -0.000248724 20.2465 1.88347 14.8887 5.41757C9.53094 8.95167 5.32836 13.9807 2.80212 19.881L2.39312 20.017L2.55112 20.492C-0.0810952 27.001 -0.553985 34.1832 1.20207 40.9811C2.95813 47.7791 6.85035 53.8337 12.3057 58.2535C17.7611 62.6733 24.4914 65.2249 31.5058 65.5325C38.5201 65.8402 45.4479 63.8876 51.2693 59.9624C57.0907 56.0372 61.4981 50.3466 63.8425 43.7285C66.187 37.1104 66.3447 29.9144 64.2925 23.1999C62.2403 16.4854 58.0865 10.6073 52.4427 6.43072C46.7989 2.25418 39.9632 -8.93606e-06 32.9421 2.46325e-08ZM58.6611 49.314L56.9781 47.632V43.713C56.9801 43.5441 56.9427 43.377 56.8691 43.225L52.6071 34.713V30.599C52.6071 30.4192 52.5628 30.2422 52.478 30.0836C52.3932 29.9251 52.2706 29.7899 52.1211 29.69L48.8421 27.504C48.7151 27.4191 48.5717 27.3619 48.4211 27.3359C48.2706 27.3099 48.1163 27.3157 47.9681 27.353L43.9531 28.353L37.2091 25.459L36.2811 18.959L38.8521 16.389H44.3721L46.2301 19.181C46.3131 19.3052 46.4208 19.4111 46.5463 19.4921C46.6719 19.5732 46.8127 19.6276 46.9601 19.652L53.5171 20.75C53.6929 20.7794 53.8732 20.7649 54.0421 20.708L60.0811 18.695C62.5688 23.4696 63.7479 28.8178 63.4985 34.1959C63.2491 39.574 61.5801 44.7901 58.6611 49.314ZM54.1541 10.769L52.3771 11.95L47.4231 10.959L44.2091 9.889C44.0124 9.82211 43.8005 9.81377 43.5991 9.865L39.5361 10.88L37.7551 10.287L39.0751 7.647H42.7751C42.9445 7.64703 43.1116 7.60766 43.2631 7.532L47.0421 5.644C49.6457 7.00346 52.0407 8.72937 54.1541 10.769ZM20.9661 4.626L23.5891 6.375C23.7179 6.46064 23.8635 6.5179 24.0161 6.543L29.3161 7.426L28.7991 8.972L26.0401 9.893C25.7931 9.97524 25.5835 10.143 25.4491 10.366L22.3101 15.596L17.2691 18.621L9.83313 19.683C9.57255 19.7198 9.33402 19.8495 9.16134 20.048C8.98866 20.2466 8.89342 20.5008 8.89313 20.764V24.042C8.89309 24.1855 8.92133 24.3277 8.97624 24.4603C9.03114 24.593 9.11164 24.7135 9.21313 24.815L11.0781 26.68V28.557L6.53312 25.526L4.88413 20.579C8.02158 13.4101 13.7722 7.70562 20.9661 4.626ZM17.8551 40.456L12.9151 39.467L11.0791 35.805V33.237L15.1511 29.165L16.6581 32.18C16.7495 32.3608 16.8894 32.5127 17.0621 32.6186C17.2348 32.7246 17.4335 32.7805 17.6361 32.78H24.6671L27.6271 37.714C27.7243 37.8757 27.8617 38.0095 28.0259 38.1024C28.19 38.1952 28.3755 38.244 28.5641 38.244H31.6021L30.8421 42.081L26.7051 46.218C26.6035 46.3194 26.5228 46.4399 26.4677 46.5726C26.4126 46.7052 26.3842 46.8474 26.3841 46.991V49.723L22.4421 52.674C22.3065 52.7758 22.1964 52.9077 22.1205 53.0594C22.0447 53.2111 22.0052 53.3784 22.0051 53.548V57.495L20.6461 57.045L18.7271 52.245V41.527C18.7273 41.2754 18.6406 41.0314 18.4817 40.8363C18.3229 40.6412 18.1015 40.5069 17.8551 40.456ZM14.5701 57.256C9.54059 53.4828 5.79588 48.2515 3.84568 42.274C1.89548 36.2965 1.83453 29.8633 3.67112 23.85L4.57912 26.573C4.65546 26.8035 4.80641 27.0019 5.00813 27.137L10.4561 30.768L9.21412 32.012C9.11264 32.1135 9.03214 32.234 8.97724 32.3667C8.92233 32.4993 8.89409 32.6415 8.89412 32.785V36.063C8.89409 36.2324 8.93346 36.3995 9.00912 36.551L11.1951 40.922C11.2699 41.0709 11.3776 41.2007 11.5102 41.3016C11.6428 41.4025 11.7967 41.4717 11.9601 41.504L16.5501 42.421V52.456C16.5502 52.5947 16.5767 52.7322 16.6281 52.861L18.8141 58.325C18.8732 58.4726 18.9638 58.6055 19.0795 58.7145C19.1952 58.8234 19.3333 58.9059 19.4841 58.956L22.7601 60.05C22.8696 60.0872 22.9845 60.1064 23.1001 60.107C23.39 60.107 23.668 59.9918 23.873 59.7869C24.078 59.5819 24.1931 59.3039 24.1931 59.014V54.095L28.1271 51.144C28.2628 51.0422 28.3729 50.9103 28.4487 50.7586C28.5246 50.6069 28.5641 50.4396 28.5641 50.27V47.444L32.6151 43.393C32.768 43.2407 32.8723 43.0465 32.9151 42.835L34.0081 37.371C34.0398 37.2125 34.0359 37.049 33.9967 36.8922C33.9576 36.7354 33.8841 36.5892 33.7817 36.4642C33.6793 36.3392 33.5504 36.2385 33.4043 36.1693C33.2583 36.1001 33.0987 36.0641 32.9371 36.064H29.1831L26.2231 31.13C26.126 30.9683 25.9886 30.8345 25.8244 30.7416C25.6602 30.6488 25.4748 30.6 25.2861 30.6H18.3111L16.4341 26.833C16.3569 26.6784 16.2441 26.5444 16.1051 26.4418C15.966 26.3392 15.8046 26.2711 15.6341 26.243C15.4633 26.2136 15.2879 26.226 15.1229 26.2793C14.958 26.3326 14.8084 26.4252 14.6871 26.549L13.2691 27.962V26.228C13.2692 26.0845 13.2409 25.9423 13.186 25.8097C13.1311 25.677 13.0506 25.5565 12.9491 25.455L11.0791 23.59V21.711L17.7911 20.753C17.9354 20.7322 18.0741 20.6829 18.1991 20.608L23.6631 17.33C23.8166 17.2379 23.945 17.1094 24.0371 16.956L27.1081 11.838L30.0031 10.872C30.1644 10.8191 30.311 10.729 30.4311 10.609C30.5511 10.4889 30.6412 10.3423 30.6941 10.181L31.7871 6.903C31.8366 6.75334 31.8531 6.59474 31.8355 6.43809C31.818 6.28145 31.7667 6.13046 31.6853 5.99547C31.6039 5.86049 31.4943 5.74472 31.3639 5.65609C31.2336 5.56746 31.0856 5.50807 30.9301 5.482L24.6041 4.427L23.4921 3.686C30.369 1.44761 37.8173 1.7244 44.5091 4.467L42.5091 5.467H38.4001C38.1965 5.46542 37.9965 5.52075 37.8226 5.62677C37.6488 5.73278 37.508 5.88525 37.4161 6.067L35.2301 10.44C35.1604 10.5801 35.1216 10.7334 35.1162 10.8898C35.1109 11.0461 35.1392 11.2018 35.1992 11.3463C35.2592 11.4908 35.3496 11.6207 35.4641 11.7272C35.5786 11.8338 35.7147 11.9145 35.8631 11.964L39.1421 13.057C39.3388 13.1239 39.5508 13.1322 39.7521 13.081L43.8151 12.066L46.7921 13.057C46.8347 13.0724 46.8785 13.0841 46.9231 13.092L52.3871 14.185C52.5279 14.2137 52.6729 14.2141 52.8139 14.1863C52.9548 14.1585 53.0888 14.103 53.2081 14.023L55.6951 12.364C56.9191 13.7274 58.0191 15.1972 58.9821 16.756L53.6051 18.55L47.7841 17.58L45.8611 14.695C45.7621 14.5467 45.6284 14.4249 45.4715 14.3402C45.3146 14.2555 45.1394 14.2105 44.9611 14.209H38.4001C38.2566 14.209 38.1144 14.2372 37.9818 14.2921C37.8492 14.347 37.7286 14.4275 37.6271 14.529L34.3491 17.807C34.2291 17.9271 34.1387 18.0734 34.085 18.2345C34.0314 18.3956 34.016 18.5669 34.0401 18.735L35.1331 26.385C35.1603 26.571 35.2349 26.7468 35.3498 26.8955C35.4647 27.0443 35.616 27.1608 35.7891 27.234L43.4391 30.512C43.6597 30.6081 43.9061 30.6278 44.1391 30.568L48.0391 29.592L50.4251 31.185V34.97C50.4232 35.1389 50.4605 35.306 50.5341 35.458L54.7961 43.97V48.083C54.7961 48.2265 54.8243 48.3687 54.8792 48.5013C54.9341 48.634 55.0146 48.7545 55.1161 48.856L57.4021 51.143C54.9913 54.3572 51.971 57.065 48.5136 59.1118C45.0562 61.1586 41.2294 62.5042 37.2519 63.0719C33.2743 63.6396 29.2239 63.4181 25.332 62.4202C21.44 61.4223 17.7828 59.6675 14.5691 57.256H14.5701Z" fill="#242E3B"/>
</g>
<defs>
<clipPath id="clip0_183_2362">
<rect width="65.583" height="65.569" fill="white" transform="translate(0.142578)"/>
</clipPath>
</defs>
</svg>
