<svg width="86" height="79" viewBox="0 0 86 79" fill="none" xmlns="http://www.w3.org/2000/svg">
<g clip-path="url(#clip0_183_2014)">
<path d="M41.0908 11C44.1284 11 46.5908 8.53757 46.5908 5.5C46.5908 2.46243 44.1284 0 41.0908 0C38.0533 0 35.5908 2.46243 35.5908 5.5C35.5908 8.53757 38.0533 11 41.0908 11Z" fill="#10AF13"/>
<path d="M68.5908 29C72.4568 29 75.5908 25.866 75.5908 22C75.5908 18.134 72.4568 15 68.5908 15C64.7248 15 61.5908 18.134 61.5908 22C61.5908 25.866 64.7248 29 68.5908 29Z" fill="#10AF13"/>
<path d="M41.5908 47C46.0091 47 49.5908 43.4183 49.5908 39C49.5908 34.5817 46.0091 31 41.5908 31C37.1725 31 33.5908 34.5817 33.5908 39C33.5908 43.4183 37.1725 47 41.5908 47Z" fill="#10AF13"/>
<path d="M9.59082 36C12.9045 36 15.5908 33.3137 15.5908 30C15.5908 26.6863 12.9045 24 9.59082 24C6.27711 24 3.59082 26.6863 3.59082 30C3.59082 33.3137 6.27711 36 9.59082 36Z" fill="#10AF13"/>
<path d="M17.0908 69C20.1284 69 22.5908 66.5376 22.5908 63.5C22.5908 60.4624 20.1284 58 17.0908 58C14.0533 58 11.5908 60.4624 11.5908 63.5C11.5908 66.5376 14.0533 69 17.0908 69Z" fill="#10AF13"/>
<path d="M38.0908 76C40.5761 76 42.5908 73.9853 42.5908 71.5C42.5908 69.0147 40.5761 67 38.0908 67C35.6055 67 33.5908 69.0147 33.5908 71.5C33.5908 73.9853 35.6055 76 38.0908 76Z" fill="#10AF13"/>
<path d="M81.0908 56C83.5761 56 85.5908 53.9853 85.5908 51.5C85.5908 49.0147 83.5761 47 81.0908 47C78.6055 47 76.5908 49.0147 76.5908 51.5C76.5908 53.9853 78.6055 56 81.0908 56Z" fill="#10AF13"/>
<path d="M1.52675 35.7201C2.1493 36.7894 3.05001 37.6701 4.13312 38.2685C5.21623 38.8668 6.44124 39.1605 7.67792 39.1182C8.91459 39.076 10.1167 38.6994 11.1564 38.0285C12.1962 37.3576 13.0347 36.4174 13.5828 35.3081L29.4618 39.5081C29.2235 41.5256 29.6489 43.5659 30.6737 45.3201C30.8207 45.5711 30.9908 45.7991 31.1568 46.0311L17.2568 59.8031C16.0146 59.2125 14.6158 59.0355 13.2657 59.2981C11.9156 59.5608 10.6852 60.2491 9.75492 61.2622C8.82468 62.2754 8.24358 63.5599 8.09687 64.9275C7.95016 66.2951 8.24557 67.6737 8.93975 68.8611C9.36479 69.5921 9.93051 70.2317 10.6042 70.7429C11.2779 71.254 12.0462 71.6266 12.8647 71.8391C13.4011 71.9799 13.9532 72.0515 14.5077 72.0521C15.748 72.0526 16.962 71.6944 18.0034 71.0207C19.0447 70.347 19.869 69.3865 20.3769 68.2549C20.8847 67.1234 21.0545 65.8691 20.8657 64.6433C20.6769 63.4174 20.1376 62.2724 19.3128 61.3461L32.9007 47.8801C34.1666 48.8966 35.6736 49.569 37.2757 49.8321L34.4247 67.3441C33.1277 67.6342 31.982 68.3897 31.2044 69.4676C30.4267 70.5455 30.0711 71.8709 30.2047 73.1933C30.3383 74.5157 30.952 75.7432 31.9295 76.6437C32.9071 77.5442 34.1808 78.0552 35.5097 78.08C36.8386 78.1048 38.1304 77.6418 39.141 76.7784C40.1515 75.9151 40.8105 74.7113 40.9934 73.3948C41.1764 72.0784 40.8705 70.7405 40.1336 69.6344C39.3968 68.5282 38.28 67.7305 36.9947 67.3921L39.8417 49.9071C41.2613 49.7525 42.6267 49.2758 43.834 48.5132C45.0412 47.7507 46.0583 46.7225 46.8078 45.5071L73.5338 52.7931C73.4728 54.0505 73.8463 55.2907 74.5916 56.3053C75.3369 57.3199 76.4086 58.0472 77.6268 58.3651C78.3245 58.5498 79.0519 58.5943 79.767 58.4961C80.4821 58.3979 81.1706 58.159 81.7928 57.7931C82.5302 57.3722 83.1601 56.7863 83.6333 56.0814C84.1064 55.3764 84.41 54.5714 84.5201 53.7295C84.6302 52.8877 84.5439 52.0317 84.2679 51.2288C83.992 50.4258 83.5339 49.6977 82.9295 49.1013C82.3252 48.505 81.591 48.0566 80.7844 47.7915C79.9778 47.5263 79.1208 47.4514 78.2805 47.5727C77.4401 47.6941 76.6393 48.0083 75.9407 48.4909C75.2421 48.9734 74.6647 49.6111 74.2538 50.3541L47.8337 43.1541C47.8527 43.0871 47.8777 43.0241 47.8957 42.9541C48.4985 40.6672 48.2105 38.2367 47.0897 36.1541L59.9237 28.6541C60.9381 29.8845 62.3136 30.765 63.8557 31.1711C64.4955 31.3394 65.1542 31.4248 65.8158 31.4251C67.454 31.4252 69.0494 30.9017 70.3691 29.9309C71.6888 28.9601 72.6636 27.5929 73.1512 26.0289C73.6388 24.4648 73.6137 22.7859 73.0796 21.2371C72.5455 19.6884 71.5303 18.3509 70.1822 17.42C68.8341 16.4891 67.2238 16.0134 65.5862 16.0625C63.9487 16.1116 62.3697 16.6828 61.0798 17.6928C59.7899 18.7028 58.8566 20.0987 58.4162 21.6767C57.9758 23.2546 58.0513 24.932 58.6317 26.4641L45.5977 34.0791C44.6011 33.0267 43.3725 32.2217 42.0098 31.7281L40.4888 13.6201C42.1215 13.2261 43.5487 12.2376 44.4916 10.8476C45.4345 9.45757 45.8253 7.76597 45.5876 6.10325C45.35 4.44053 44.5009 2.92615 43.2064 1.85595C41.9119 0.785758 40.2649 0.236637 38.5871 0.31587C36.9094 0.395102 35.3214 1.097 34.1335 2.28443C32.9456 3.47186 32.2431 5.05951 32.1632 6.73723C32.0833 8.41494 32.6317 10.0622 33.7014 11.3571C34.7711 12.6521 36.2851 13.5017 37.9478 13.7401L39.4097 31.1791C37.4359 31.0468 35.4708 31.5424 33.7958 32.595C32.1208 33.6476 30.8218 35.2032 30.0848 37.0391L14.2647 32.8551C14.36 31.7803 14.2001 30.6982 13.7982 29.6968C13.3962 28.6955 12.7635 27.8032 11.9516 27.0926C11.1397 26.382 10.1714 25.873 9.12567 25.6073C8.07991 25.3415 6.98618 25.3264 5.93349 25.5632C4.88079 25.8 3.89886 26.2819 3.06761 26.9699C2.23635 27.6578 1.57926 28.5323 1.1498 29.5221C0.720334 30.5119 0.530636 31.5892 0.596138 32.6662C0.661641 33.7432 0.980494 34.7896 1.52675 35.7201ZM18.2618 66.5961C18.0337 67.4676 17.5104 68.2332 16.7812 68.7622C16.052 69.2912 15.1618 69.551 14.2625 69.4973C13.3632 69.4436 12.5103 69.0798 11.8492 68.4677C11.1881 67.8557 10.7597 67.0333 10.6369 66.1408C10.5142 65.2483 10.7047 64.3408 11.176 63.573C11.6474 62.8052 12.3703 62.2246 13.2218 61.9301C14.0732 61.6357 15.0004 61.6455 15.8454 61.958C16.6904 62.2706 17.4009 62.8664 17.8558 63.6441C18.1151 64.0849 18.2845 64.5727 18.3542 65.0794C18.4239 65.5861 18.3924 66.1016 18.2618 66.5961ZM38.1187 71.2061C38.4502 71.7674 38.5875 72.4224 38.5092 73.0696C38.431 73.7168 38.1416 74.3202 37.6858 74.7864C37.2301 75.2526 36.6334 75.5555 35.9881 75.6484C35.3428 75.7413 34.6849 75.6189 34.1162 75.3002C33.5475 74.9815 33.0996 74.4843 32.842 73.8854C32.5844 73.2865 32.5313 72.6195 32.691 71.9874C32.8507 71.3553 33.2143 70.7935 33.7254 70.3889C34.2366 69.9842 34.8669 69.7594 35.5187 69.7491H35.5347C35.5487 69.7491 35.5617 69.7421 35.5757 69.7421C36.091 69.7429 36.597 69.8783 37.0437 70.1349C37.4905 70.3916 37.8624 70.7605 38.1227 71.2051L38.1187 71.2061ZM76.1628 52.3001C76.3293 51.6705 76.699 51.1136 77.2146 50.7158C77.7301 50.318 78.3626 50.1015 79.0138 50.1001C79.268 50.1011 79.5211 50.1347 79.7668 50.2001C80.2359 50.3237 80.6674 50.5612 81.0229 50.8913C81.3785 51.2215 81.6472 51.6342 81.8052 52.0929C81.9633 52.5517 82.0058 53.0423 81.9291 53.5214C81.8523 54.0005 81.6587 54.4533 81.3653 54.8397C81.0719 55.2262 80.6877 55.5343 80.2468 55.7369C79.8059 55.9395 79.3219 56.0303 78.8376 56.0012C78.3532 55.9722 77.8835 55.8242 77.47 55.5704C77.0565 55.3166 76.7119 54.9648 76.4668 54.5461C76.2697 54.2105 76.1413 53.8392 76.0891 53.4536C76.0369 53.068 76.062 52.6759 76.1628 52.3001ZM63.2108 19.3001C64.0874 18.7872 65.0965 18.5458 66.1103 18.6065C67.1242 18.6671 68.0973 19.0271 68.9066 19.6408C69.7158 20.2545 70.3249 21.0944 70.6568 22.0544C70.9887 23.0143 71.0285 24.051 70.7711 25.0336C70.5137 26.0161 69.9707 26.9002 69.2109 27.5741C68.451 28.248 67.5083 28.6815 66.5021 28.8196C65.4959 28.9577 64.4713 28.7944 63.5579 28.3502C62.6445 27.906 61.8834 27.2009 61.3708 26.3241C61.0266 25.7434 60.8011 25.1003 60.7073 24.4319C60.6136 23.7635 60.6534 23.0831 60.8246 22.4302C60.9957 21.7773 61.2948 21.1649 61.7044 20.6284C62.114 20.092 62.626 19.6422 63.2108 19.3051V19.3001ZM35.5508 9.35006C35.1625 8.68492 34.9802 7.91958 35.0269 7.15084C35.0736 6.3821 35.3473 5.64447 35.8132 5.03124C36.2791 4.41801 36.9165 3.95671 37.6446 3.70569C38.3727 3.45466 39.1588 3.42518 39.9037 3.62098C40.6486 3.81677 41.3186 4.22905 41.8292 4.80566C42.3397 5.38228 42.6678 6.09735 42.772 6.86043C42.8761 7.62352 42.7517 8.40036 42.4143 9.0927C42.077 9.78505 41.5419 10.3618 40.8767 10.7501C40.436 11.0113 39.9478 11.1824 39.4404 11.2534C38.933 11.3244 38.4165 11.2939 37.921 11.1636C37.4255 11.0334 36.9608 10.806 36.5539 10.4947C36.147 10.1833 35.806 9.79427 35.5508 9.35006ZM35.3298 34.6421C36.5017 33.957 37.8505 33.6347 39.2056 33.7162C40.5606 33.7976 41.8611 34.279 42.9426 35.0995C44.0241 35.92 44.838 37.0428 45.2814 38.3259C45.7248 39.6089 45.7778 40.9947 45.4336 42.3078C45.0895 43.621 44.3637 44.8027 43.348 45.7034C42.3324 46.604 41.0724 47.1834 39.7275 47.368C38.3826 47.5527 37.0132 47.3344 35.7923 46.7408C34.5715 46.1472 33.5541 45.2049 32.8687 44.0331C32.4087 43.2562 32.1073 42.3957 31.9821 41.5016C31.8568 40.6074 31.9102 39.6973 32.1391 38.8239C32.368 37.9505 32.7678 37.1312 33.3155 36.4133C33.8632 35.6955 34.5478 35.0935 35.3298 34.6421ZM5.27075 28.5291C6.00792 28.0984 6.85622 27.8961 7.70839 27.9475C8.56057 27.999 9.37836 28.3019 10.0584 28.8181C10.7384 29.3343 11.2501 30.0405 11.5288 30.8474C11.8074 31.6544 11.8406 32.5259 11.6241 33.3517C11.4075 34.1775 10.951 34.9206 10.3121 35.4869C9.67333 36.0533 8.88093 36.4175 8.03513 36.5336C7.18932 36.6496 6.3281 36.5123 5.56034 36.139C4.79257 35.7656 4.15275 35.173 3.72175 34.4361C3.43144 33.9476 3.24115 33.4063 3.16192 32.8436C3.08269 32.2809 3.11612 31.7081 3.26025 31.1584C3.40439 30.6088 3.65635 30.0933 4.0015 29.6419C4.34665 29.1905 4.7781 28.8122 5.27075 28.5291Z" fill="#242E3B"/>
</g>
<defs>
<clipPath id="clip0_183_2014">
<rect width="85" height="78.189" fill="white" transform="translate(0.59082)"/>
</clipPath>
</defs>
</svg>
