<svg width="75" height="50" viewBox="0 0 75 50" fill="none" xmlns="http://www.w3.org/2000/svg">
<g clip-path="url(#clip0_183_2038)">
<path d="M7.23469 0C6.88301 0 6.54574 0.139632 6.29707 0.388306C6.04839 0.636979 5.90869 0.974251 5.90869 1.32593V38.5769C5.90869 38.9286 6.04839 39.2659 6.29707 39.5145C6.54574 39.7632 6.88301 39.903 7.23469 39.903H24.8347C25.1864 39.903 25.5236 39.7632 25.7723 39.5145C26.021 39.2659 26.1607 38.9286 26.1607 38.5769C26.1604 38.2253 26.0206 37.8883 25.772 37.6396C25.5234 37.391 25.1863 37.2512 24.8347 37.251H8.56169V2.651H66.9197V37.251H49.7647C49.4129 37.251 49.0755 37.3906 48.8267 37.6394C48.5779 37.8882 48.4382 38.2256 48.4382 38.5774C48.4382 38.9292 48.5779 39.2666 48.8267 39.5154C49.0755 39.7641 49.4129 39.9039 49.7647 39.9039H68.2447C68.5964 39.9039 68.9336 39.7643 69.1823 39.5156C69.431 39.267 69.5707 38.9296 69.5707 38.5779V1.3269C69.5707 0.975227 69.431 0.637955 69.1823 0.389282C68.9336 0.140609 68.5964 0.000976562 68.2447 0.000976562L7.23469 0Z" fill="#242E3B"/>
<path d="M73.5457 37.2158L70.6547 37.2428H49.6827C49.3309 37.2428 48.9935 37.3826 48.7447 37.6313C48.496 37.8801 48.3562 38.2175 48.3562 38.5693C48.3562 38.9211 48.496 39.2586 48.7447 39.5073C48.9935 39.7561 49.3309 39.8959 49.6827 39.8959H70.6757L72.2347 39.8689V46.5259H3.24571V41.7909C3.24571 40.9679 3.23771 40.3638 3.26671 40.0398C3.29571 39.7158 3.32471 39.8198 3.19971 39.9398C3.07471 40.0598 3.09971 39.9688 3.52071 39.9398C3.94171 39.9108 4.66371 39.8949 5.65571 39.8949H25.7947C26.1465 39.8949 26.4839 39.7551 26.7327 39.5063C26.9815 39.2576 27.1212 38.9202 27.1212 38.5684C27.1212 38.2165 26.9815 37.8791 26.7327 37.6304C26.4839 37.3816 26.1465 37.2418 25.7947 37.2418H5.65471C4.66171 37.2418 3.91471 37.2419 3.26671 37.3029C2.5815 37.3146 1.92121 37.5617 1.39671 38.0028C0.920024 38.4906 0.644421 39.1401 0.624708 39.8219C0.573708 40.4069 0.593708 41.0109 0.593708 41.8009V47.8629C0.593577 48.0371 0.627778 48.2096 0.694357 48.3706C0.760936 48.5316 0.858586 48.6779 0.981729 48.8011C1.10487 48.9244 1.2511 49.0222 1.41204 49.0889C1.57298 49.1556 1.74549 49.1898 1.91971 49.1898H73.5617C73.7359 49.1898 73.9084 49.1556 74.0694 49.0889C74.2303 49.0222 74.3765 48.9244 74.4997 48.8011C74.6228 48.6779 74.7205 48.5316 74.7871 48.3706C74.8536 48.2096 74.8878 48.0371 74.8877 47.8629V38.5428C74.8877 38.3674 74.8529 38.1937 74.7853 38.0317C74.7176 37.8698 74.6185 37.7228 74.4937 37.5995C74.3689 37.4761 74.2208 37.3788 74.0581 37.3131C73.8953 37.2474 73.7212 37.2147 73.5457 37.2168V37.2158Z" fill="#242E3B"/>
<path d="M25.7737 37.216C25.4238 37.2228 25.0908 37.3678 24.8472 37.6192C24.6037 37.8706 24.4694 38.208 24.4737 38.558V40.89C24.4737 41.2417 24.6134 41.579 24.8621 41.8277C25.1108 42.0763 25.4481 42.216 25.7997 42.216H49.6817C49.8559 42.216 50.0283 42.1817 50.1892 42.115C50.35 42.0484 50.4962 41.9508 50.6194 41.8277C50.7425 41.7045 50.8402 41.5584 50.9068 41.3975C50.9734 41.2366 51.0077 41.0642 51.0077 40.89V38.558C51.0077 38.2062 50.868 37.8688 50.6192 37.62C50.3704 37.3713 50.033 37.2315 49.6812 37.2315C49.3294 37.2315 48.992 37.3713 48.7433 37.62C48.4945 37.8688 48.3547 38.2062 48.3547 38.558V39.563H27.1247V38.558C27.1268 38.3808 27.0934 38.2051 27.0264 38.041C26.9594 37.877 26.8602 37.7281 26.7347 37.6031C26.6092 37.4779 26.4598 37.3791 26.2954 37.3127C26.131 37.2462 25.955 37.2133 25.7777 37.216H25.7737Z" fill="#242E3B"/>
<path d="M18.0527 6.76392H61.6257V33.2899H13.8667V6.76392H18.0527Z" fill="#10AF13"/>
</g>
<defs>
<clipPath id="clip0_183_2038">
<rect width="74.298" height="49.19" fill="white" transform="translate(0.589844)"/>
</clipPath>
</defs>
</svg>
